<?xml version="1.0" encoding="utf-8"?>
<!-- Generator: Adobe Illustrator 26.0.1, SVG Export Plug-In . SVG Version: 6.00 Build 0)  -->
<svg version="1.1" id="Layer_1" xmlns="http://www.w3.org/2000/svg" xmlns:xlink="http://www.w3.org/1999/xlink" x="0px" y="0px"
	 viewBox="0 0 445.8 457.6" style="enable-background:new 0 0 445.8 457.6;" xml:space="preserve">
<style type="text/css">
	.st0{display:none;}
	.st1{display:inline;fill:#EDCB48;}
</style>
<g id="Layer_2_00000160909129983530553420000011988950902145904025_" class="st0">
	<rect x="-30.4" y="-69.1" class="st1" width="500.3" height="600"/>
</g>
<g id="Layer_1_00000177443717017940469020000003872880543458501004_">
	<g>
		<path d="M241.3,448.3c-1,0-1.9,0-2.9,0c-3.5-5.1-3-10.5,0.4-15.1c2.8-3.7,6.6-6.6,9.9-9.9c1.2-1.2,3.2-2.4,3.5-3.9
			c1.6-8.2,1.3-16.2-2.9-23.9c-10.8,6.4-21.3,12.6-31.8,18.9c1,0.7,1.6,0.6,2.2,0.8c3.3,0.9,6.9,1.4,9.7,3.1c1.3,0.8,1.8,4,1.6,6
			c-0.1,0.9-2.9,2.2-4.5,2.2c-7.5,0-14.9-0.5-22.4-0.5c-2.1,0-4.5,0.6-6.3,1.6c-4.4,2.5-8.5,5.5-12.9,7.9c-1.7,0.9-3.9,1-5.8,1.5
			c-0.3-0.5-0.6-1-0.8-1.5c3.6-3.1,7.3-6.3,10.8-9.3c-3.8-0.9-4-1.1-4.5-5.3c-5.7-1.7-11.7-6.2-16.2,2c-0.1,0.1-0.2,0.2-0.3,0.2
			c-1.2,0.2-2.9,0.9-3.6,0.4c-1-0.7-1.7-2.3-1.7-3.6c0-1.6,0.9-3.1,1.4-4.8c-1.4-0.3-2.5-0.6-3.7-0.8c-7-1.2-14-2.4-21-3.7
			c-3.9-0.7-7.6-2.1-9.7-6.8c1.6,0.1,2.6,0,3.6,0.2c10.6,2,21.3,4.1,31.9,6.1c0.9,0.2,2.2,0.6,2.7,0.2c3.7-3,7.5-5.9,8.9-11.3
			c-2.7,0.7-4.9,1.5-7.1,1.8c-3.9,0.5-8,1.3-11.8,0.9c-7.1-0.9-13.9-3.2-21-4.4c-5.9-1-10.8-0.8-15.9,2c-2.3,1.3-4.7,2.2-7.1,3.3
			c4.1-6.9,10.6-8.2,17.7-8.1c0-0.3-0.1-0.6-0.1-0.9c-6.9-2.1-13.7-4.1-21.2-6.4c0,5.3,0,10,0,14.7c-4.3-3.9-6.3-8.6-7.5-13.7
			c-0.5-2.2-1.4-3.5-3.9-4c-5.7-1.2-11.3-2.5-16.8-4.2c-2.9-0.9-5.6-2.6-8.4-4c9.7-2.7,17.9,2.3,27.2,3.4c-0.5-4.4-0.9-8.5-1.6-12.5
			c-0.1-0.8-1.2-1.7-2-2.2c-9.7-5.3-20.1-3.9-30.5-2.9c-0.6,0.1-1.2,0.7-1.8,1.1c-5.7,4.4-11.4,8.9-17.2,13.3
			c-0.6,0.4-1.2,1.1-1.8,1.1c-1.5-0.1-3.5-0.1-4.3-1c-1.4-1.6-0.7-3.4,1.3-4.4c1.6-0.8,3.4-1.3,4.9-2.2c4-2.4,7.9-5,11.8-7.6
			c-7.3-2.7-13.8-5.1-19-10.4c14,3.8,28.1,3.9,42.4,2.2c-1.7-2.3-3.3-4.6-4.8-6.8c-2.7,1.1-5.2,2.2-7.8,3.3c-1.7-5.5,2.8-8,5.5-12.2
			c-5.1,1.7-8.5-0.4-12.1-2c-4.1-1.8-8.6-3-13-4c-4.6-1-9.3-1.4-13.9-2.1c-2.8-0.5-5-2.3-3.5-4.9c0.7-1.3,4.1-1.9,6.2-1.6
			c3.6,0.5,7.1,2.1,10.6,2.9c9.1,1.9,18.8,2.2,25.4,10.3c2.3-8.3,1.4-18.6-1.7-22.4c-0.5,1.9,3.1,4.6-1,5.8c-3.3,1-6.4-1.3-7.1-5
			c-0.2-0.9-0.1-1.9,0-2.9c0.1-1.2,0.3-2.4,0.6-3.6c0.6-2.5-0.1-4.1-2.5-5.2c-3.7-1.8-7.3-3.8-10.8-5.9c-2-1.2-3.6-3.1-1.8-5.7
			c1.7-2.4,3.8-3.3,6.5-1.6c2.5,1.6,5,3.3,8.1,5.3c-2.4-13,0.6-26.3-7.3-38.2c-2.8,3.8-5,7.9-7.3,11.9c-3.3,5.6-6.5,11.2-10.1,16.6
			c-1.2,1.9-1.7,3.3-0.7,5.2c2.1,3.8,4.4,7.5,6.4,11.3c2,3.8,4,7.7,5.4,11.8c0.4,1.1-1,3-1.6,4.5c-1.3-0.8-3.2-1.2-3.8-2.3
			c-4.4-7.4-8.5-14.9-12.8-22.4c-5.9,4.8-10,10.7-12.8,17.7c-0.6,1.6-1.7,3.2-2.8,4.5c-0.5,0.5-1.7,0.3-2.6,0.5
			c-0.2-1-0.7-2.1-0.4-2.9c1.8-3.7,3.6-7.4,5.7-10.8c3-4.8,6.2-9.4,9.7-14.6c-2.2-1.3-4.2-2.7-6.4-3.6c-3.4-1.4-5.3-3.9-5.4-7.4
			c-0.2-8.5-3.9-15.3-9.8-21.1c-1.2-1.2-2.1-2.6-3.5-4.4c5.7-0.4,8.5,3.1,11.9,5.7c3.5,5.1,6.6,10.3,7.7,16.5
			c0.6,3.3,3.2,5.1,6.2,6.3c1.3-5.5,2.7-10.8,3.7-16.1c2-10.8,3.1-21.5-2.7-31.7c-0.6-1.1-0.7-2.4-1.1-3.6c0.3-0.4,0.6-0.7,0.9-1
			c2,1,4.4,1.5,5.9,3c1.7,1.6,2.7,4.1,3.7,5.8c4.2-3.9,11.3-4.5,13.8-10.1c-3.5-2.5-6.9-4.7-10-7.4c-4.2-3.7-8.6-4.4-14-2.8
			c-3.6,1.1-7.9,0.9-11.6,0.2c-4-0.8-4.9-3.6-2.9-7.2c2-3.5,4.4-6.9,6.8-10.3c0.3-0.5,1.2-0.6,1.8-0.9c0.2,0.2,0.5,0.5,0.7,0.7
			c-1.3,2.2-2.6,4.4-3.8,6.7c-1.6,3.2-0.6,5.2,2.9,5.6c2.6,0.3,5.3-0.3,7.9,0c3.9,0.3,8.2,0.2,11.6,1.8c5.7,2.7,10.8,6.5,15.5,9.5
			c4.8-0.3,9.3-0.6,13.8-1c2.1-0.2,4.6-0.1,6.3-1.2c6.4-4.1,12.6-8.6,18.9-12.9c-0.1-0.3-0.3-0.7-0.4-1c-1.5-0.1-3-0.2-4.5-0.2
			c-6.9,0.2-13.7,0.7-20.6,0.8c-2.2,0-3.8,0.3-5.4,2c-2.2,2.4-4.9,4.1-8.3,3.2c-0.8-0.2-1.6-0.9-2.4-1.3c0.5-0.8,0.8-1.6,1.4-2.3
			c0.7-0.7,1.5-1.3,3-2.5c-3.3-0.2-5.8-0.4-8.1-0.5c-2.2-0.1-4.4-0.4-4.3-3.2c0.1-2.7,2.2-3.1,4.4-3.1c2.7,0,5.4,0,8.1,0
			c1.9-15.3,2.8-18-2.5-34.6c-2.4-7.5-2.8-14.8,0.2-22.2c1.2-3.1,1.4-6.6,2.3-10.7c-2.8,0.8-4.5,1.3-6.2,1.8
			c-7.5,2.4-7.5,2.5-6.8,10.3c0.1,1.3,0.3,2.6,0.4,4c1,9.8,2.1,19.7,3.1,29.5c0.2,2.3-0.3,4.2-2.8,5.2c-5.7,2.4-11.2,5-16.8,7.5
			c-0.9,0.4-1.8,0.6-3.2,1.1c2.1-7.5,6.9-11.3,13.3-13.4c1.9-0.6,3.1-1.2,3-3.7c-0.1-9.4,0.1-18.8,0-28.2c0-2.4-0.3-4.8-0.5-7.8
			c-2.4,1.6-4.2,2.8-6.1,3.9c-5.7,3.2-11.3,6.5-17.1,9.5c-2.6,1.4-5.6,2-9.2,0.1c8.5-10.5,21.1-11.4,32.7-15.6
			c-2.6-9.5-5.1-18.8-7.8-28.6c4.3,0.9,6.3,3.3,7.2,6.1c1.2,4.1,1.8,8.4,2.4,12.7c0.4,2.9,0.4,5.9,0.6,9.2c1.8-0.7,3.1-1.2,4.4-1.8
			c9.7-4.7,9.4-4.6,8.4-15.4c-0.9-8.8-1.9-17.9-0.9-26.6c0.7-6.7,4.3-13.2,6.9-19.6c0.6-1.4,2.3-2.4,3.5-3.6
			c1.2,1.3,3.1,2.4,3.7,3.9c2.9,8.3,1.2,16-4.6,22.6c-4.4,5-5,10.6-3.8,17.2c8.7-7.2,19.1-7.4,29.4-7.7c-3.1-5-6.1-9.6-8.9-14.3
			c-1.2-1.9-0.9-3.4,1.4-4.2c4.3,5.7,8.5,11.4,12.4,16.6c4.9-9.4,9.6-18.4,14.7-28.1c-4.8-1.1-10.3-3.1-15.9-3.4
			c-4.3-0.2-8.6,1.8-13,2.4c-1.5,0.2-3.1-0.9-4.7-1.3c0.7-1.2,1-2.9,2-3.6c7.4-5.3,15.4-5.7,23.7-2.5c4.1,1.6,8.1,3.5,13.1,5.6
			c0.6-2.4,1.6-4.5,1.7-6.5c0.3-5.6-1.2-10.7-3.9-15.6c-1-1.8-1.9-4.1-1.8-6.1c0-1.2,2-2.4,3.1-3.6c1,1.1,2.6,2.1,2.9,3.4
			c1.4,5.7,2.6,11.5,3.8,17.2c0.4,0,0.8,0,1.2,0c1.4-4.2,2.9-8.3,4.3-12.5c-2.3-0.3-4.3-0.6-6.3-0.8c0.6-3.9,3-5.7,5.8-7
			c3-1.4,5.4-3.1,7.6-5.8c2.6-3.3,6.3-5.2,11.6-4.8c-1,1.8-1.7,2.9-2.6,4.6c13.9-3.4,27.3-6.8,40.7-10.1c0-0.3,0-0.7,0-1
			c-1.9-0.5-3.9-1.1-5.8-1.4c-3.4-0.6-7-0.7-10.4-1.6c-4.1-1.1-4.5-3.2-1.5-6.3c3.1,0,6.3,0,9.4,0c5.4,1.9,10.9,3.9,16.3,5.6
			c1.7,0.5,3.7,0.7,5.5,0.4c8.4-1.4,16.8-3.1,25.2-4.6c2.5-0.4,5.2-0.7,5.5,2.8c0.2,3.2-2.5,3.2-4.6,3.2c-5-0.1-8,2.6-10.6,6.6
			c0.8,0.2,1.3,0.4,1.9,0.6c16.2,3.4,32.3,6.7,48.5,10.2c1.8,0.4,3.4,1.7,5,2.7c-0.1,0.3-0.1,0.6-0.2,0.9c4-1.3,8-2.6,12-3.9
			c-6.4-2.6-12.8-4.4-19.1-6.2c-6.1-1.8-12.3-3.6-18.3-5.5c-2.2-0.7-5.3-1-4.3-4.5c1-3.4,3.7-2.2,6-1.5c0.2,0.1,0.5,0.2,0.7,0.2
			c13.5,4.4,27,8.9,40.6,13.1c2.1,0.7,4.6,0.4,7,0.2c3.8-0.3,7.6-1.1,11.5-1.3c0.9-0.1,2.3,0.9,2.8,1.7c0.3,0.6-0.5,1.9-1,2.8
			c-0.3,0.6-1,0.9-1.5,1.4c7,2.4,14,4.2,20.5,7.2c6.6,3,12.8,7.1,19,11c1.6,1,2.5,3.2,3.4,5c0.3,0.7-0.1,2.3-0.7,2.8
			c-0.6,0.4-2,0.2-2.9-0.2c-1.7-0.8-3.2-2-5.6-3.6c-1.6,6.7-3,12.8-4.4,18.8c-0.1,0.6,0.1,1.6,0.5,1.9c2.5,2.2,5,4.5,7.7,6.5
			c1.8,1.4,3.2,1.1,4.9-0.8c2.4-2.8,5.3-5.3,8.2-7.6c0.8-0.7,2.3-0.5,3.5-0.8c-0.2,1.2,0,2.7-0.6,3.7c-1.2,2-2.8,3.9-4.4,5.7
			c-1,1.1-2.4,1.9-3.6,2.8c0.2,0.6,0.5,1.1,0.8,1.7c1.8-0.1,3.6-0.1,5.3-0.5c1.7-0.4,3.4-1.6,5.1-1.7c1.4-0.1,3.6,0.3,4.2,1.2
			c1.2,1.8,0.3,3.7-1.8,4.7c-1.7,0.8-3.5,1.6-5.5,2.5c2.9,5.5-0.1,13.5,7.6,16.5c2.2-2.7,3.9-5.7,6.3-7.7c2.2-1.8,2.4-3.2,1.8-5.8
			c-2-8.9-3.6-17.8,0.1-26.7c0.4-1,1.1-1.9,1.7-2.9c0.4,0.1,0.8,0.2,1.2,0.3c0.4,5,1,10,1.2,15c0.3,4.6-0.1,9.2,0.5,13.7
			c1,9,4.6,17.2,8.9,25.1c5.3,9.9,8.1,20.1,5.2,31.3c-0.1,0.5,0,1,0,2.1c5.2-6.2,8.6-12,7.4-19.9c-0.8-5.4-0.5-11-0.3-16.5
			c0-1.3,1.7-2.6,2.6-3.8c1,1.3,2.8,2.5,3,4c1.8,11.6,2.1,22.9-6.2,32.6c-0.9,1.1-1.7,2.4-2.3,3.7c-2.8,5.9-5.9,11.6-8.1,17.6
			c-1.7,4.6-1.4,9.4,1.5,14c3.1-2.9,5.8-5.8,8.9-8.2c4.2-3.3,5.8-7.7,6.5-12.8c0.7-4.8,1.7-9.5,3.1-14.1c0.8-2.6,2.7-4.9,4.2-7.3
			c0.5,0.2,0.9,0.4,1.4,0.5c0,1.6,0.2,3.3,0,4.9c-0.8,6.1-2.2,12.1-2.4,18.2c-0.3,7.2-3.5,12.3-9.2,16.3c-3.2,2.2-6.3,4.7-9.7,7.3
			c5.4,7.2,8.8,15.9,19.1,17.2c0.3-2.3,0.4-4.6,0.9-6.8c1.6-8.6,3.2-17.2,5.1-25.8c0.2-1.1,2-1.8,3.1-2.7c0.6,1.3,1.9,2.7,1.7,3.9
			c-0.8,5.3-1.9,10.6-3.1,15.9c-1.2,4.9-2.8,9.7-4,14.6c-0.6,2.2,0.3,3.5,2.6,4.3c3,1,5.6,2.6,7.1,6.9c-3.8-0.5-6.9-1-10.6-1.5
			c-0.1,1-0.7,2.6-0.1,3.4c4.6,7,9.4,14,14.1,20.9c0,1,0,1.9,0,2.9c-2.8,2-4.9,1.5-6.9-1.5c-3.5-5.3-7.3-10.4-11.4-16.1
			c-2.2,11.9-3.9,23.3-6.5,34.6c-1.6,6.9,0.2,12.9,2,19.4c4-5.1,8-10,11.9-14.9c0.4,0.2,0.8,0.5,1.2,0.8c-2.2,4.6-4,9.5-6.8,13.7
			c-3.9,5.8-5,11.5-3.3,18.3c1.2,4.8,1.2,9.8,1.6,14.7c0.2,2.1-0.6,4.2-3,4c-1.3-0.1-2.8-1.9-3.3-3.3c-0.7-1.9-0.5-4-0.8-6.1
			c-0.4-3.5-0.7-7-1.1-11.1c-1.5,1.8-2.5,2.9-4.2,4.8c1.4-6.8,5.5-12.4,2-18.8c-2.3,10.3-4.6,20.4-6.8,30.5
			c-0.6,2.9-1.5,5.3-4.8,5.8c-0.1,2.5,0,4.8-0.4,7c-0.1,0.8-1.3,1.4-2,2.1c-0.7-0.7-1.4-1.4-2-2.2c-0.2-0.2,0-0.7,0-1.1
			c-0.5-7.6-1-15.1-1.6-22.7c-0.1-0.9-0.3-1.9-0.9-2.5c-1.3-1.7-3-3-4.2-4.7c-5.1-7.8-10-15.7-15.1-23.4c-3.2-4.9-6.8-9.6-10.3-14.5
			c-7.1,8.4-9.3,21.4-5.2,30.7c3.5-5.4,3.4-12.6,8.8-17.7c4.9,10.7-2.9,17.2-7,25c5.8,5.5,11.6,11,17.6,16.6
			c2-5.6,3.7-10.7,5.6-15.8c0.4-0.9,1.5-1.5,2.3-2.2c0.8,1.1,1.8,2.1,2.4,3.3c0.2,0.5-0.2,1.4-0.5,2.1c-1.4,4.6-2.7,9.2-4.3,13.8
			c-0.9,2.5-0.4,4.2,1.2,6.4c5.4,7.4,10.3,15.1,15.4,22.6c1.4,2,1.2,4-1.1,5.2c-2.5,1.3-3.6-0.2-4.8-2.2
			c-3.8-6.6-7.6-13.1-11.5-19.6c-0.4-0.7-1.1-1.3-1.7-1.9c-0.3,0.1-0.6,0.2-1,0.3c0,5.2-0.4,10.5,0.1,15.7
			c0.8,9.3,3.6,18.6-2.7,27.4c2,0.9,3.9,1.2,5.2,2.4c1,0.9,1.8,2.7,1.7,4c-0.1,0.7-2.3,1.4-3.6,1.7c-0.7,0.2-1.7-0.3-2.4-0.7
			c-4.5-2.9-7.8-1.2-10.7,2.5c-0.3,0.4-0.7,0.7-1,1.1c-5.1,6.9-10.1,13.8-15.2,20.7c-1.5,2.1-3.2,3.6-5.7,1.8
			c-2.5-1.8-1.2-3.9,0.2-5.7c3.7-5.1,7.5-10,11.2-15.1c2.3-3.2,4.3-6.5,6.6-10c-5.8-2.5-10.9-4.4-15.7,0.7c-1.6,1.6-3.7,2.7-5.5,4.1
			c-7.1,5.8-12.4,12.6-14.3,21.9c-0.9,4.5-1,8.2,3.4,10.9c0.9,0.5,1.9,1.4,2.2,2.3c0.4,1.4,0.2,3,0.3,4.5c-1.4,0-3,0.5-4.2-0.1
			c-1.7-0.9-3.1-2.5-4-3.2c-4,3.2-7.6,6.1-11.2,9c-2.3,1.9-4.5,4-6.8,5.9c-1.1,0.9-2.5,1.4-3.8,2.1c0-1.5-0.5-3.5,0.2-4.4
			c2.6-3.1,5.8-5.7,8.6-8.6c2.2-2.3,4.3-4.8,6.3-7.4c0.5-0.6,0.5-2.4,0-2.8c-4.1-4.2-8.4-8.2-12.7-12.3c-8.2,6.5-16,12.7-23.9,19
			c-0.5-0.5-0.9-0.9-1.4-1.4c1.6-9.2,11.2-11.9,15.7-18c-10.6-9.4-21.1-18.8-31.7-28.1c-0.8-0.7-1.8-1.3-2.7-1.4
			c-8.4-1-16.4,0.9-24.8,3.8c7.1,4.1,13.8,8,20.6,11.6c1.1,0.6,2.9,0.3,4.2-0.1c2.6-0.9,5.1-2.7,8.7-1.4c-0.9,1.7-1.7,3.1-2.6,4.7
			c0.9,0.3,1.9,0.5,2.7,1c4.6,2.6,9.3,5.1,13.5,8.1c2.5,1.8,4.2,4.7,3.2,8.2c-3.3,1.4-5.3-0.7-7.3-2.6c-5.1-5-11.4-7.6-18.8-9.4
			c0.4,1.3,0.5,2,0.8,2.6c2.6,4.8,2.9,9.8,2,15.1c-1,5.5,0.8,10.2,4.6,14.2c1.8,1.9,4,3.6,5.4,5.8c0.8,1.2,1,3.6,0.3,4.6
			c-1.3,2-3.2,1-4.5-0.6c-2.7-3.2-5.3-6.5-8-9.9c-1.3,2.6-2.6,5.3-4,7.9C248.1,436.4,244.7,442.3,241.3,448.3z M325.3,362.5
			c4.9,0.4,9.5,0.5,14,1.3c3,0.6,4.6-0.5,5-3c1.1-7.3,2.2-14.5,0.3-22c-1-3.9-0.7-8.1-0.7-12.1c0-2.5,0.8-4.9,1-7.4
			c0.2-2.5,0.3-5,0.4-7.6c-4.5,6.9-8.2,14.2-12.3,21.3c-1.8,3.2-4.4,5.9-6.9,8.7c-0.5,0.6-1.7,0.5-2.6,0.7c-0.2-1-0.9-2.1-0.6-2.9
			c1.4-3.3,2.9-6.6,4.8-9.6c5-7.5,10.4-14.8,15.4-22.4c4.7-7,4.5-13.8-0.8-20.6c-2.7-3.5-6-6.6-8.9-10c-1.1-1.3-2-2.8-3.2-4.5
			c6.3-0.9,8.3,4,11,6.3c2.9-6.3,5.7-12.6,8.3-18.2c-2.5-0.3-5.5-0.6-8.6-0.9c-0.1-0.5-0.1-1-0.2-1.5c2.8-1.5,5.6-3,8.7-4.6
			c-2.4-2.9-4.9-5.7-7.1-8.4c-3.8,4-7.2,7.6-10.8,11.2c-4,4-6.4,8.6-7,14.3c-0.5,5.6-1.6,11.2-1.9,16.9c-0.3,7.1-0.1,14.1-0.1,22
			c8.8-17.4,9.3-18.1,15.4-16.9c-1.5,3.2-2.7,6.2-4.3,9c-2.9,5.3-6.8,10.1-8.7,15.7c-3.5,10.2-6,20.8-9.1,32
			c3.8-0.5,7.6-0.9,11.2-1.6c2.8-0.5,5.2,0.3,6,2.7c1,2.7-1.9,3.2-3.7,3.9c-4.9,1.9-9.9,2.2-14.9,0.8c-2-0.5-3,0.1-3.5,1.9
			c-1.5,4.7-2.8,9.5-4.4,14.1c-0.8,2.4-2.2,4.6-3.3,6.9c-4.8-8.4-2-15.9,1.1-23.1c-9,0.8-17.9,2.2-26.6,2c-8.7-0.1-17.4-1.8-26-2.8
			c2.5-1.5,5.1-2.1,7.3-3.2c5.2-2.8,10.4-2.7,16.1-1.2c4.1,1.1,8.8,0.9,13.1,0.5c5.7-0.5,11.4-1.9,17.1-2.5c2.2-0.2,3.4-0.9,4.3-2.9
			c2-4.9,4-9.9,6.4-14.6c2.4-4.7,2.6-9.4,1.8-14.4c-2-12.5-3.7-25.1-0.8-37.8c2.4-10.5,2-21,0.1-31.6c-2.4-13.3-5.6-26.7-1.6-40.9
			c-2.8,0.6-4.9,1.2-7.1,1.7c2.4-4.6,6.8-6.8,12.7-6c7.2,1,14.3,2,21.6,0.4c4.5-1,9-1.7,13.5-2.6c-1.2-1.4-2.8-1.6-3.9-2.5
			c-4.9-3.6-10.2-6.9-14.4-11.3c-13.8-14.3-27.6-28.4-44.1-39.6c-3.3-2.2-6.2-5-9-7.8c-2.5-2.5-3.6-5.6-2-9.6
			c1.9,1.4,3.6,2.7,5.2,3.8c2.5-1.2,4.8-2.4,7.2-3.5c-5.5-6.9-19.1-15.7-23.7-15.7c0.4,2.7,0.8,5.4,1.2,8.1
			c-0.5,0.3-0.9,0.5-1.4,0.8c2,1.4,4,2.9,6.4,4.6c-5.4,2.3-9.5,1.3-13-1.4c-4.1-3.2-7.8-6.8-11.3-10.6c-2.7-3-5.2-5.7-9.1-7.2
			c-3.9-1.6-7.6-3.9-9.8-8.4c1.7-0.2,3-0.3,4.5-0.5c-0.7-0.6-1.2-1.2-1.7-1.5c-6.4-4.3-12.8-8.6-19.3-12.7c-0.6-0.4-1.6-0.4-2.3-0.2
			c-7.3,2.4-14,5.7-19.1,11.8c-2.2,2.6-5.2,4.6-8.1,6.6c-3.2,2.3-6.7,4.3-9.9,6.6c-5.6,3.8-11,7.9-16.6,11.6
			c-4.8,3.2-9.8,6.2-14.7,9.3c-7.5,4.7-13.1,10.9-15.5,19.7c-0.6,2.2-2.1,4.3-3.8,5.9c-6.7,6.6-13.7,12.8-20.3,19.6
			c-5.4,5.5-11,10.4-18.6,12.7c-6.7,2-9.6,7.9-13.6,13.6c4.6,0,8.8,0.8,12.4-0.2c10.8-3,21-0.5,31.3,2.4c0.9,0.2,2.2,1.4,2.1,1.9
			c-0.1,1-1,2.2-1.9,2.6c-1.6,0.8-3.4,1.1-4.1,1.3c-0.9,6-1.8,11.4-2.4,16.9c-0.3,3.1-0.5,6.2-0.1,9.3c0.8,7.6,2.4,15.2,2.9,22.9
			c0.2,3.3-1.3,6.7-2,10c-0.5-0.1-1-0.1-1.4-0.2c-2.1-11.4-4.2-22.7-6.4-34.1c-0.4,0-0.7,0-1,0c-2.1,7.4-4.2,14.8-6.3,22.2
			c-0.2,0.6-0.3,1.3-0.1,1.8c2,3.6,4.1,7.1,6.1,10.6c0.3-0.1,0.7-0.2,1-0.3c-0.9-6.2-1.7-12.4-2.8-19.7c1.6,1.9,2.8,2.8,3.2,4
			c6.7,18.5,7.8,37.8,7.7,57.2c4.2-1.5,8.3-3,12.4-4.5c-0.4,2.2-1,4-2.3,5.2c-2.5,2.2-5.4,4-8,6.1c-1,0.8-2.2,2.3-2.1,3.3
			c1.3,9.4,2.8,18.8,4.3,28.4c3.8-0.6,7.1-1.4,10.4-1.7c11.7-1,23,1.2,34.1,5c1.4,0.5,3.1,1,4.5,0.7c4.3-1,8.6-2.4,12.4-3.4
			c0-1.7-0.5-3.9,0.1-4.3c1.2-0.8,3.1-0.8,4.6-0.5c1.5,0.2,2.9,1.2,4.3,1.8c1,0.4,2.1,0.9,3.1,0.7c9.6-1.7,19,0.4,28.5,1.3
			c8.9,0.9,17.8,2.5,26.4-1.7c1.2-0.6,3,0.2,4.4,0.3c-0.5,1.5-0.6,3.3-1.5,4.5c-1,1.3-2.6,2.4-4.1,2.8c-3.1,0.9-6.4,1.8-9.5,1.6
			c-10.3-0.6-20.7-1.6-31-2.5c-1.7-0.1-3.4-0.3-5.2-0.5c4.3,4.1,8.1,9.3,15.1,5.3c0.7-0.4,2.4,0.1,3.1,0.8c0.4,0.4-0.1,2-0.4,2.9
			c-0.2,0.7-0.9,1.2-1.8,2.3c2,0.3,3.3,0.8,4.7,0.8c9-0.5,18.1-1.2,27.1-1.7c6.3-0.3,12.5-0.5,18.5,3.2c-1.2,0.5-2.2,1-3.4,1.5
			c4.1,2.8,8,5.5,12,8.2c0.4,0.3,0.9,0.7,1.3,0.6c5.6-1.7,9.4,1.9,13.2,4.8c3.4,2.6,6.5,5.6,10.5,9.1c0.7-2.1,1.2-3.7,1.6-4.8
			c11.5-5.2,22.9-10.3,34.3-15.4c-0.1-0.3-0.2-0.7-0.3-1c-1-0.2-2.1-0.4-3.1-0.5c-4.1-0.5-8.1-0.9-12.2-1.5c-2-0.3-4.2-1.5-2.4-3.4
			c2.1-2.1,5.3-3.1,8-4.6c0.2,0.3,0.4,0.6,0.6,0.9C325.8,360.8,325.6,361.6,325.3,362.5z M176,413.3c5.9,1.7,11.5,3.4,17.2,4.8
			c4.6,1.2,9.1,0.4,13.1-2.2c9.9-6.6,19.8-13.3,29.7-20.1c3.1-2.1,6.1-4.5,9.3-6.8c-3.3-5.6-7-10.3-12.3-13
			c-6.5-3.3-13.4-5.9-20.2-8.5c-4.3-1.7-5.9-0.9-8.9,3.2c4.6,1.4,9.1,2.9,13.9,4.4c-2.1,3.6-5,4.4-8.2,4c-4.2-0.5-8.3-1.8-12.5-2
			c-2.1-0.1-5.1,0.9-6.1,2.4c-2.2,3.3-3.5,7.3-5.3,11.3c7.3,0.9,13.6-0.8,19.7-3.7c4.1-2,8-4.5,12.3-6.1c2.5-0.9,5.6-0.6,8.3-0.2
			c0.8,0.1,1.7,2.4,1.7,3.7c0,0.7-1.6,1.8-2.7,2.2c-4.8,1.5-9.6,2.8-14.4,4.2c-6,1.7-11.9,3.6-17.9,5.2c-2.4,0.7-5,0.8-7.5,1.3
			c-0.8,0.1-1.8,0.5-2.1,1.1C180.6,403.3,178.4,408.1,176,413.3z M205.1,28.5c-6.4-3.3-10.6-3.8-16.9-2.9
			c-13.7,1.9-25.9,8-38.3,13.6c-6.8,3.1-11.1,7.2-13.9,13.9c-2.8,6.9-6.5,13.3-10.2,20.7c26.8,2.9,50.1-8.2,74.2-15.8
			c-2.6-0.4-5.1-0.8-7.5-0.3c-2.3,0.4-4.5,1.7-7.2,2.7c1.1-2.5,2-4.7,3-7c-3,0.2-6.2,1.2-8.9,0.6c-7.6-1.8-13.9,1-20.1,4.5
			c-2.1,1.2-4.4,2-6.8,2.5c-1.9,0.5-3.9,0.3-6.3,0.5c3.3-6.2,9-7.8,14.3-10.8c-5.4-2-11.1-2.9-14.6-9c3.4,0,6.1-0.5,8.6,0.1
			c4.4,1,8.7,2.7,13.1,3.9c1.4,0.4,3.1,0.5,4.5,0.1c5.5-1.4,10.8-3.5,16.3-4.7C196,39.5,201.1,34.8,205.1,28.5z M71.6,194.8
			c6.9-7.3,10.2-15.4,11.6-24.4c0.2-1.7,0-3.6-0.7-5.2c-2.4-5.7-5.3-11.1-7.4-16.9c-1.7-4.5-2.7-9.2-3.4-13.9
			c-0.5-3.7,2.3-5.9,5.7-4.5c2.4,1,4.8,3.3,5.9,5.7c3,6.2,2.6,12.9,1.6,19.5c-0.4,2.5,0.1,5.1,0.2,8.1c3.8-2.7,6.8-4.7,9.7-6.9
			c3.4-2.6,5.4-5.5,5.4-10.3c0-4.1,1.4-8.6,3.4-12.3c2.1-4.1,5.6-7.4,8.8-11.5c-2.4-3-5.2-6.4-8.1-9.8c-0.4-0.5-1.2-1-1.8-1
			c-7-0.3-14-1.1-20.9-0.4C74,111.6,69.3,118,69.9,125c1.2-0.6,2.4-1.2,3.6-1.7c7-2.8,14.1-5.6,21.2-8.4c2.1-0.8,4.2-0.9,5.1,1.6
			c1,2.8-1.2,3.6-3.1,4.3c-8.3,2.9-16.7,5.6-24.9,8.6c-1,0.4-2.3,1.3-2.7,2.2c-1.6,4.1-2.6,8.5-4.4,12.5c-2.4,5.3-3.2,10.6-1.4,16.2
			c1.2,3.8,2.6,7.5,4.2,11.1c2.8,6.3,4.2,12.8,4,19.7C71.4,192.2,71.5,193.2,71.6,194.8z M109.4,101.6c0.3,0.4,0.6,0.7,0.9,1.1
			c2.8-2.3,5.8-4.5,8.4-6.9c3.1-2.9,6.4-5.4,10.9-4.7c3.6,0.6,6.7,0.8,9.1-2.6c0.6-0.9,2.1-1.5,3.2-1.6c7.6-0.8,15.3-1.7,22.9-2.1
			c2.6-0.1,3.9,2.3,3,4.6c-2.5,6.5-10.6,10.9-17.4,9.3c-3.2-0.8-6.2-1.9-9.3-2.9c-5.5-1.8-10.7-1.7-15.1,2.8
			c-5,5.1-10.5,9.6-18.3,11.8c8.9,8,17.4,15.6,25.9,23.2c1.5-1.2,4.1-4.1,7.2-5.9c6.2-3.6,9.8-8.6,11.3-15.5
			c1.3-5.9,4.7-10.7,9.5-14.6c2.4-1.9,4.7-4.1,6.6-6.4c3.4-4.1,6.4-8.5,9.6-12.7c1.9-2.5,4-4.9,6.5-8.1c-9.4,2.6-18,5-26.6,7.3
			c-11.1,3.1-22.2,4.4-33.5,0.5c-0.8-0.3-2.3,0.1-2.7,0.6C116.3,85.8,112,93.2,109.4,101.6z M370.1,129
			c-10.3,14.4-12.5,23.5-9.9,40.5c0.2,1.2,1.2,2.7,2.2,3.2c6.5,3.1,10.4,8.4,13,14.8c1.1,2.8,2,5.4-1.4,7.3c2.7,0.9,5,1.6,7.2,2.5
			c2.2,0.8,4.3,1.8,6.6,2.8c1.2-8-1-18-5.1-24c-2.2-3.3-4.6-6.5-6.8-9.8c-2.6-3.9-5.3-7.8-7.5-11.9c-1.1-2.2-1.3-4.9-1.9-7.3
			c0.5-0.2,1-0.4,1.4-0.6c10.4,7,11.3,20.3,18.4,29.6c3.1-14,9-27.6,2.8-40.8c-2.8-0.3-5.3-0.1-7.5-0.9
			C377.9,132.9,374.1,130.8,370.1,129z M404.3,260.6c0.4,0.1,0.9,0.1,1.3,0.2c2.8-10.5,5.5-21.1,8.3-31.7c-6.1,2-11.5,3.8-16.9,5.4
			c-6.2,1.9-9.9,7.2-13.1,11.8c-3,4.4-3.4,10.4-1,16.3c2.8,6.8,4.7,13.9,6.5,21c1.1,4.2,2.5,8.8-1.6,12c1.6,5.2,3.1,10.1,4.8,15.3
			c2.7-10.7,5.3-21.2,8.1-31.6c1-3.6,0.9-7-0.1-10.5c-2.6-9.5-3.1-19.2-2.6-29c0-1,1-1.9,1.6-2.9c1,0.6,2.4,1,2.8,1.9
			c0.7,1.7,1.1,3.7,1.2,5.5C404,249.6,404.1,255.1,404.3,260.6z M273.6,108.2c-2.9-8.4-5.8-16.8-8.6-25.2c0.4-0.2,0.9-0.4,1.3-0.6
			c1.6,3.2,3.1,6.3,4.7,9.5c2.2,4.3,4.2,8.7,6.7,12.7c1.8,2.9,6,4.2,6.1,8.5c0,0.3,0.7,0.6,1.1,0.9c5.2,3.6,10.3,7.1,15.5,10.6
			c0.6,0.4,1.7,0.7,2.2,0.4c3.8-1.9,7.6-3.9,11.6-6.1c-2.6-2.9-5.1-5.4-7.3-8.1c-4.3-5.5-9.3-9.5-16.6-10.2c-2.1-0.2-4.1-1.3-6-2.3
			c-1.5-0.8-2.6-2.1-3.9-3.3c0.1-0.4,0.3-0.8,0.4-1.1c2.9-0.2,5.8-0.4,8.8-0.6c-5.6-6.1-11.2-12.3-17.1-18.6
			c-4.3,3.5-8.6,6.9-12.7,10.4c-0.7,0.6-1,2.4-0.6,3.2c1.9,4.5,4.4,8.9,6.2,13.5C266.9,105.6,269.2,108,273.6,108.2z M228.6,67.1
			c-8.7-8.2-11.6-8.4-20.4-1.7c-1.2,0.9-2.5,1.9-3.8,2.7c-3.2,1.9-6.4,3.8-9.7,5.6c-0.1-0.2-0.2-0.4-0.4-0.6
			c3.5-3.3,7-6.5,10.9-10.1c-6.3,0.9-11.5,3.2-14.7,7.5c-8,10.8-15.8,21.9-23.5,32.9c-1.6,2.4-3.1,4.3-6.6,2.7
			c-1.3,4.4-2.4,8.6-3.8,13.4c6.6-3.4,10.9-8.2,15.4-12.7c3.8-3.8,8.3-6.8,12.5-10.1c2.7-2.1,5.9-3.9,8.2-6.4
			c3.6-4,7.6-6.9,12.6-8.8c2.5-0.9,5-2.1,7.4-3c-1-2.5-2.1-4.6-2.6-6.8c-0.3-1.2,0.2-2.7,0.4-4c1.2,0.5,2.8,0.6,3.7,1.4
			c1.9,1.7,3.4,3.7,5.3,5.8C222.4,72.3,225.5,69.7,228.6,67.1z M65.1,253.7c0.7,1.9,1.9,4.1,2.3,6.6c1.8,11.5,3.9,23.1,4.6,34.7
			c0.4,6.7,3.4,11.1,7.4,15.9c2-5.1,3.8-10,5.9-14.8c1.1-2.5,0.9-4.3-0.8-6.5c-4.3-5.8-6.2-12.3-3.8-19.4c0.4-1.3,1.8-3.2,2.8-3.2
			c1.3-0.1,2.9,1.2,4.1,2.2c1.1,1,1.8,2.5,3.2,4.5c0.5-4.1,0.7-7.3,1.2-10.4c0.5-3.1-0.2-5.6-2.4-7.9c-5.1-5.1-10.1-10.2-14.7-14.9
			C71.9,244.4,68.6,248.9,65.1,253.7z M324.5,255.5c4.7-5.6,9-10.8,13.3-16c-4.6-6.3-10.4-11.5-12-19.1c0.4-0.3,0.8-0.7,1.2-1
			c4.8,4.8,9.7,9.6,14.6,14.5c-1-11.6,3.1-17.1,16.2-21.3c-0.5-2.5-1-5.1-1.7-8.7c-5,1.2-9.9,2.3-14.8,3.5c0,0.3,0.1,0.7,0.1,1
			c1.3,0.8,2.5,1.6,3.9,2.5c-9.5,3.2-17-4.4-25.9-4.2C315.4,223.6,321.1,239.2,324.5,255.5z M183.1,375.4
			c-7.6-1.9-15.1-2.1-22.6-0.6c-6.4,1.3-12.5,1.5-18.1-2.2c-8.9-6-17.6-3-25.8-0.2c-3.8-1.3-7.3-2.5-11.3-4
			c1.3,4.1,2.5,7.4,3.2,10.8c0.5,2.2,1.6,3.2,3.7,3.8c9.4,2.4,18.9,5,28.3,7.3c1.3,0.3,3-0.1,4.4-0.6c8.6-3.4,17.1-7,25.7-10.4
			C174.7,377.7,179,376.7,183.1,375.4z M332.6,94.7C320,94.1,316,92,309.2,82.2c-1-1.4-0.9-3.5-1.3-5.3c0.4-0.2,0.7-0.4,1.1-0.5
			c-6.3-3.6-12.5-7.2-18.9-10.7c-0.9-0.5-2.4-0.6-3.3-0.2c-2.8,1.4-5.4,3.1-8.3,4.8c4,4.8,8.3,9,11.5,13.9
			c6.9,10.4,16,17.2,28.2,20.2c4,1,7.8,2.8,12,4.3C331.1,103.7,331.8,99.3,332.6,94.7z M311.7,45.5c-3.5-1.2-6.8-2.4-10.1-3.4
			c-1.5-0.4-3.1-1.1-4.5-0.8c-15,3.4-30,6.9-45,10.5c-1.3,0.3-2.6,0.9-4.2,1.6c2.7,9.3,5.2,18.1,7.9,27.3c5.1-3.4,9.7-6.4,14-9.2
			c-1.2-4.9-7.8-7.3-4.9-13.4c-0.1-0.1-0.3-0.3-0.5-0.4c-2.3-1.4-5.1-3.1-3.9-6c0.4-1,4.5-1.4,6.5-0.8c6.4,2.1,12.5,4.8,18.8,7.2
			c1.1,0.4,2.7,0.9,3.6,0.5C296.8,54.5,304.1,50.1,311.7,45.5z M350.7,365.6c2.7,0.7,5.9,1.5,9,2.3c4.7,1.3,5.7,1.4,6.7-3.4
			c1.4-6.5,1.7-13.3,2.2-20c0.5-7.1,0.5-14.1,0.7-21.2c0-0.9,0-2.1-0.5-2.7c-5.4-6.5-11-13-16.4-19.5c-0.4,0.1-0.8,0.2-1.1,0.4
			c-0.7,4.9-1.4,9.7-2.1,14.9c2.5-1.3,4.5-2.5,6.6-3.3c3.6-1.4,6,0.2,5.3,4c-1.4,7.4-3.2,14.8-5.3,22c-0.7,2.4-3.2,4.3-4.8,6.5
			c-0.7,0.9-1.5,2-1.6,3c-0.1,2.9,0.1,5.7,0.4,8.6C349.9,359.9,350.3,362.5,350.7,365.6z M201.4,363.3c-3.9-2.9-7.3-6.9-11.5-8.2
			c-3.9-1.2-8.8,0.3-13.2,0.6c0,0.4,0,0.7,0.1,1.1c1.7,0.8,3.4,1.6,5.5,2.7c-3.8,2.7-7.4,2.1-10.7,0.7c-4.8-2.1-9.5-2.2-14.3-0.5
			c-1.2,0.4-2.6,0.6-3.9,0.8c-4.1,0.4-8.3,1.2-12.3-1.8c3.8-0.9,7.6-1.9,11.5-2.8c-7.8-3.1-22.9-3.3-33.8-0.3
			c0.2,2.8,0.5,5.7,0.9,9.5c10.8-6,19.6-2.5,28.7,3.1c3.2,2,8.3,2.7,12.1,2c10.9-2.1,21.6-3.3,32.6-1.2c0.8,0.1,1.9-0.2,2.6-0.7
			C197.6,366.6,199.5,364.9,201.4,363.3z M337,56.7c-6.1-2.9-13.2-6.2-21.3-10.1c1.5,4.2-0.7,5.2-3,6.2c-6.2,2.8-12.3,5.8-18.4,8.7
			c13.3,5.5,24.7,14.9,39,16.2C334.4,70.9,335.6,64.3,337,56.7z M262.7,44c-16-4.3-31-8.3-45.9-12.6c-3.1-0.9-5.2-0.6-7.1,2
			c-4.7,6.2-10.9,10-18.6,11.4c-2.9,0.5-5.6,1.9-8.4,2.8c0.1,0.4,0.2,0.7,0.4,1.1c3.6-1,7.3-1.6,10.6-3.1c6.9-3,13.6-2.6,19.1,2
			c6.7,5.7,13.4,5.6,20.9,2.8c1-0.4,2.1-0.6,3.1-0.8c3-0.4,5.2-1.4,4.8-5.1c-0.1-0.8,0.6-1.6,1.2-3c1.6,2.2,2.8,3.9,4.1,5.8
			C251.9,46.3,256.9,45.2,262.7,44z M254.1,90c-1.9,1.3-3.3,2.6-5,3.1c-1.3,0.5-3,0.1-4.5,0c0.4-1.5,0.4-3.3,1.2-4.4
			c1.1-1.5,3-2.4,4.4-3.7c0.6-0.6,1.5-1.9,1.3-2.5c-2.9-9.2-6-18.3-9.1-27.6c-4.2,1.2-8.5,2.3-13.2,3.6c1.9,1.2,3.1,2.1,4.5,3
			c1.5-1.2,2.8-2.3,4.1-3.3c0.4,0.1,0.7,0.2,1.1,0.2c-3.9,5.4,1.9,8.7,2.4,14.1c-3-0.6-5.4-1-7.6-1.4c-3.5,3.2-6.9,6.3-10.6,9.6
			c3,2.2,5.8,4.3,8.5,6.4c5.9,4.6,11.9,9,17.4,14.1c3.1,2.8,6.3,3.5,10.4,3.5C257.6,99.8,255.9,95.1,254.1,90z M120.7,133.2
			c-2.8,4.4-5,9.4-8.5,13.1c-5,5.4-11.1,9.9-16.5,15c-2.4,2.2-4.9,4.8-6.2,7.7c-1.6,3.8-2.1,8.1-3.1,12.3c6.3-1.6,11.3-5,15.4-9.7
			c6.1-7,12.9-13,20.9-17.6c1.1-0.6,1.8-2.1,2.2-3.3c1-2.8,1.9-5.7,2.6-8.6c0.2-0.9,0.1-2.4-0.4-3
			C125,136.9,122.6,134.9,120.7,133.2z M321.8,127.9c-1.8,2.3-3.6,4.4-5.3,6.6c-4.9,6.1-8.9,6.4-14.5,0.9c-0.7-0.6-1.8-1.3-2.6-1.2
			c-2.4,0.3-4.8,1-7.8,1.7c3,2.5,5.7,4.9,8.5,7.1c6.5,5.1,12.4,11.1,20.4,14.1c1.1,0.4,2.3,1.2,3.3,1c7.1-1.5,13.1-5,17.9-9.6
			c-3.7-3.9-7.3-7.6-11.1-11.5c-1.6,6.4-0.6,13.6-6.6,18.6c-0.7-2.7-1.4-5.4-1.1-7.9c0.4-3.8,1.2-7.6,2.2-11.3
			C326.1,132.7,325.4,130,321.8,127.9z M377.8,244.5c1-1.7,2.2-2.9,2.6-4.3c2.3-9.6,4.5-19.2,6.7-28.8c0.9-4,0.4-5.2-3.5-6.5
			c-4.3-1.4-8.9-2.4-13.1-4.1c-1.9-0.7-4.5-2.8-4.5-4.1c0.1-3,3.2-2,5.2-2.1c0.2,0,0.3-0.2,0.6-0.4c-2.9-0.9-5.6-1.8-9.1-2.9
			c1.7,4.2-0.9,8.9,3.6,11.7c0.3,0.2,0.2,2,0,2.1c-4.4,1.6-1.8,4.9-2.5,8c1.9,0,3.4-0.3,4.7,0.1c1.4,0.4,2.7,1.3,4.1,2
			c-0.8,1.2-1.5,2.5-2.4,3.5c-0.7,0.8-1.6,1.3-1.7,1.4C371.6,228.2,374.5,235.8,377.8,244.5z M38.4,276.8c0.6,0.2,1.1,0.4,1.7,0.6
			c5.1-8.1,10.2-16.3,15.4-24.5c-2.6-2.3-4.8-4.3-7.1-6.3c4.7-4.2,8.2-1.2,11.9,1.3c6.6-5.5,10.9-12.3,13.6-20.5
			c-6.6,0.2-11.7,2.7-15.9,7.3c-4,4.3-9,6.3-14,5.3C42.1,252.2,40.2,264.5,38.4,276.8z M365.7,222.6c-1.3,1.3-2.5,2.6-3.6,3.9
			c-3.8,4.4-7.8,8.2-14.2,8.1c-2.1,0-3.5,3.8-2.2,5.6c2.5,3.5,5.2,6.9,7.9,10.4c1.6,2.1,3.6,2.6,6.1,1.5c4.5-2.1,8.9-4.1,13.6-6.3
			c-1.3-3.9-2.6-7.6-3.9-11.4C368.2,230.6,367.1,226.8,365.7,222.6z M91,296.3c-6.7,18.3-9.6,33.1-7.9,39.4c2.7-1.2,5.4-2.4,8.2-3.7
			c-1.5-7.6-5.1-15-1.7-23.3c5.5,5.8,5.8,12.8,7.3,19.5c6.4-4.5,9.7-11.7,9.8-20.4C101.4,303.9,96.4,300.2,91,296.3z M352.3,142.7
			c-0.3-4.2-0.5-8.8-0.9-13.3c-0.8-9.3-7.4-15.2-17.1-15.5c-0.7,4.1-1.6,8.2-2.1,12.4c-0.1,1.2,0.4,2.8,1.2,3.7
			c4,4.1,8.4,8,12.3,12.2C347.8,144.3,349.6,144.7,352.3,142.7z M76.9,232.8c5.1,6.7,9.5,13.8,16,18.8c2.5-8.4,4.9-16.4,7.3-24.5
			C87,223.7,81.3,225.1,76.9,232.8z M107.3,325.5c-3.1,2.8-5.9,5.2-8.5,7.8c-0.6,0.6-0.8,2-0.6,2.9c1,6.3,2.1,12.6,3.4,18.8
			c1,5.3,4.5,7.9,9.9,8.1c2.3-5.6-1.3-8.9-6.4-12c2.9-1.2,4.6-1.9,6.6-2.6C110.1,340.9,108.7,333.3,107.3,325.5z M409.9,222.6
			c-1.7-9.6-10.4-10.1-17.3-13.8c-2,7.8-3.9,15.1-5.7,22.4C393.5,224.6,403.8,228.9,409.9,222.6z M358.9,257.7
			c4.9,6.3,9.3,11.9,14.2,18.3c0.1-9.4,6.1-17.4,0.9-26.5C369.1,252.1,364.2,254.8,358.9,257.7z M337.7,110.9
			c10,3.5,19.1,6.8,28.2,9.9c0.7,0.2,1.7-0.5,2.6-0.7c0-0.4,0-0.8,0-1.2c-7.1-1.1-9.5-6-10.4-12.2c-0.2-1.7-1.1-3.3-1.8-5.4
			C350.1,104.5,344.3,107.5,337.7,110.9z M152.4,392.4c0,0.4,0.1,0.9,0.1,1.3c3.1,1.1,6.3,2.3,9.4,3.3c0.6,0.2,1.5,0.4,2,0.1
			c4.9-2.1,9.8-4.2,15-6.5c0.8-2.6,1.8-5.7,3.1-10.2C171.5,384.7,161.9,388.6,152.4,392.4z M107.3,303c1.4-13.1-6.2-23.6-10.7-35.1
			c-1,5.3-4.3,10.4-0.3,15.7c0.8,1,1.1,2.4,1.5,3.6C99.7,293.2,101,299.4,107.3,303z M330.2,161.2c8.1,3,15.5,5.9,23.2,8.8
			c0-3.2,0-6,0-8.7c-5.5-0.5-6.1-1.6-4.5-7.3C341,151.5,336.9,158.6,330.2,161.2z M355.5,192.4c0.4-9.2-4-16.1-12.5-19.4
			c-4.2-1.6-8.4-3.2-12.6-4.8c-0.2,0.3-0.4,0.6-0.6,0.9C338.4,177,347,184.8,355.5,192.4z M313.8,402c1-3.6,1.7-6.9,3-10
			c1.3-3,3.2-5.8,4.8-8.7c-0.2-0.3-0.4-0.6-0.6-0.9c-5.9,3.5-11.7,7-17.8,10.7c1,1,1.5,1.5,2,1.9C308.1,397.3,310.9,399.6,313.8,402
			z M93,337.2c-3.3,2.1-6.2,4-9,5.7c2.4,5,8.1,10.6,13.9,13.7C96.3,350.2,94.8,344,93,337.2z M365.2,126.6c-3.9-1.8-7.3-3.4-10.9-5
			c0.9,6.5,1.7,12.8,2.6,20.1C360,136.3,362.5,131.6,365.2,126.6z M328.1,111.4c0-0.3,0-0.6-0.1-0.9c-6.3-1.8-12.5-3.5-18.8-5.3
			c-0.1,0.3-0.1,0.5-0.2,0.8c3.4,3.5,6.7,7,10.1,10.6C322.4,114.7,325.2,113.1,328.1,111.4z M107.7,208.9
			c-5.2,4.5-9.4,8.3-13.9,12.2c5.6,2.4,9.1,0.8,11.4-5c0.8,2.3,1.3,3.5,1.7,4.7c0.2,0,0.5-0.1,0.8-0.1
			C107.7,217.2,107.7,213.6,107.7,208.9z M384.1,290.1c-1.8-7.4-3.4-13.8-5.1-20.9c-1.2,3.5-2.2,6.3-3,9.1c-0.2,0.6,0.2,1.6,0.7,2.2
			C378.9,283.4,381.2,286.4,384.1,290.1z M276.1,67.6c2.2-1.5,4.4-3,7.3-5c-5.8-1.2-10.6-2.2-16.1-3.4
			C270.5,62.3,273.2,64.8,276.1,67.6z M336.9,93.9c-0.3,3.6-0.6,6.6-0.9,9.8c0.2,0.1,0.5,0.2,0.7,0.2c2.7-2.9,5.4-5.9,8.6-9.3
			C342.1,94.3,339.7,94.1,336.9,93.9z M400.8,207c0.2-0.3,0.5-0.5,0.7-0.8c-1.6-2.8-3.2-5.6-4.8-8.4c-0.3,0-0.7,0-1,0
			c-0.6,1.6-2,4.1-1.5,4.6C396.1,204.3,398.6,205.5,400.8,207z M380.2,109c-1.1,3-1.9,5.3-2.8,7.9c2.1,0.9,4.2,1.8,6.8,2.9
			C382.7,116,381.5,112.7,380.2,109z M385.4,128.2c0.1-0.1,0.2-0.3,0.3-0.4c-2.9-1.9-5.8-3.8-8.7-5.7c-2-1.3-3-0.6-3.4,1.6
			C377.6,125.2,381.5,126.7,385.4,128.2z M206.7,52.5c-3.4-2.3-6.9-3.8-11-1.7C199.5,51.4,203.1,51.9,206.7,52.5z M263.5,115.6
			c-0.9-2.6-0.7-6.5-5.6-5.2C259.9,112.3,261.7,113.9,263.5,115.6z"/>
		<path d="M150.8,106.1c-1.6,0.9-3.3,1.8-4.9,2.7c-6.2,3.2-12.4,6.5-18.9,9.3c-1.5,0.6-3.8-0.8-5.7-1.3c0.6-1.5,0.8-4.1,1.7-4.4
			c8.7-2.7,17.5-5.1,26.3-7.5c0.4-0.1,0.8,0.2,1.3,0.3C150.6,105.4,150.7,105.8,150.8,106.1z"/>
	</g>
	<g>
		<g>
			<path d="M153.8,251.2c4.7-7.9,12.9-11.8,24.4-11.8c11.5,0,19.7,3.9,24.4,11.8s7.1,18.8,7.1,32.7c0,14.1-2.4,25.1-7.1,33.1
				s-12.9,11.9-24.4,11.9c-11.5,0-19.7-4-24.4-11.9c-4.7-7.9-7.1-19-7.1-33.1C146.7,270,149.1,259.1,153.8,251.2z M194.8,267.3
				c-0.9-4.5-2.6-8.2-5.1-11.1c-2.6-2.9-6.4-4.3-11.5-4.3c-5.1,0-8.9,1.4-11.5,4.3c-2.6,2.9-4.3,6.6-5.1,11.1
				c-0.9,4.5-1.3,10-1.3,16.6c0,6.8,0.4,12.5,1.2,17.1c0.8,4.6,2.5,8.3,5.1,11.1s6.5,4.2,11.6,4.2c5.1,0,8.9-1.4,11.6-4.2
				c2.6-2.8,4.3-6.5,5.1-11.1c0.8-4.6,1.2-10.3,1.2-17.1C196.1,277.4,195.6,271.9,194.8,267.3z"/>
			<path d="M246.6,314.4c2.7,2.1,6.2,3.1,10.8,3.1c5.7,0,9.9-2.3,12.6-6.8c2.7-4.5,4-12.2,4-23.1c-1.9,2.7-4.7,4.9-8.2,6.4
				c-3.5,1.5-7.3,2.2-11.4,2.2c-5.2,0-10-1.1-14.3-3.2c-4.3-2.1-7.6-5.3-10.1-9.6s-3.7-9.4-3.7-15.4c0-8.9,2.6-16,7.8-21.2
				c5.2-5.3,12.4-7.9,21.5-7.9c11,0,18.8,3.6,23.4,11c4.6,7.3,7,18.5,7,33.6c0,10.4-0.9,18.9-2.6,25.5c-1.7,6.6-4.7,11.6-9,15
				c-4.3,3.4-10.2,5.1-17.8,5.1c-8.6,0-15.3-2.3-20-6.8s-7.3-10.2-7.9-17.1h12.7C242.2,309.3,244,312.3,246.6,314.4z M268.2,280.1
				c2.8-3,4.2-7,4.2-12c0-5.6-1.5-9.9-4.4-13c-3-3.1-7-4.7-12-4.7c-5.1,0-9.1,1.6-12,4.8c-3,3.2-4.4,7.4-4.4,12.5
				c0,4.9,1.4,9,4.3,12.2c2.9,3.2,7.2,4.8,13,4.8C261.7,284.7,265.5,283.1,268.2,280.1z"/>
		</g>
		<g>
			<path d="M195.9,180.5c-1.9-3.6-4.5-6.3-7.8-8.2c-3.3-1.8-7.2-2.8-11.5-2.8c-4.8,0-9.1,1.1-12.8,3.2c-3.7,2.1-6.7,5.2-8.8,9.1
				s-3.2,8.5-3.2,13.7s1.1,9.8,3.2,13.8s5,7.1,8.8,9.2c3.7,2.1,8,3.2,12.8,3.2c6.4,0,11.7-1.8,15.7-5.4c4-3.6,6.5-8.5,7.4-14.7
				h-27.1v-9.5h39.8v9.3c-0.8,5.6-2.8,10.8-6,15.5s-7.4,8.5-12.6,11.3c-5.2,2.8-10.9,4.2-17.2,4.2c-6.8,0-13-1.6-18.6-4.7
				c-5.6-3.1-10.1-7.5-13.4-13.2s-4.9-12-4.9-19s1.6-13.4,4.9-19c3.3-5.6,7.8-10,13.4-13.2c5.6-3.1,11.8-4.7,18.6-4.7
				c7.7,0,14.5,1.9,20.5,5.7c6,3.8,10.4,9.1,13.1,16.1L195.9,180.5L195.9,180.5z"/>
			<path d="M283.3,232h-11.9l-35.7-54v54h-11.9v-72.4h11.9l35.7,53.9v-53.9h11.9V232z"/>
		</g>
	</g>
</g>
</svg>
