<?xml version="1.0" encoding="utf-8"?>
<!-- Generator: Adobe Illustrator 26.0.1, SVG Export Plug-In . SVG Version: 6.00 Build 0)  -->
<svg version="1.1" xmlns="http://www.w3.org/2000/svg" xmlns:xlink="http://www.w3.org/1999/xlink" x="0px" y="0px"
	 viewBox="0 0 500.31 600" style="enable-background:new 0 0 500.31 600;" xml:space="preserve">
<style type="text/css">
	.st0{display:none;}
	.st1{display:inline;fill:#EDCB48;}
</style>
<g id="Layer_2" class="st0">
	<rect class="st1" width="500.31" height="600"/>
</g>
<g id="Layer_1">
	<g>
		<path d="M271.68,517.4c-0.97,0-1.93,0-2.9,0c-3.52-5.14-3.05-10.47,0.41-15.11c2.76-3.7,6.6-6.59,9.92-9.88
			c1.25-1.23,3.18-2.41,3.46-3.87c1.57-8.17,1.27-16.22-2.89-23.92c-10.75,6.39-21.26,12.63-31.76,18.87
			c0.99,0.74,1.61,0.61,2.16,0.77c3.29,0.91,6.87,1.38,9.71,3.07c1.34,0.79,1.84,4.04,1.59,6.04c-0.12,0.93-2.92,2.16-4.51,2.16
			c-7.47,0.02-14.94-0.47-22.41-0.48c-2.12,0-4.47,0.58-6.32,1.6c-4.42,2.45-8.52,5.47-12.93,7.94c-1.68,0.94-3.85,1.03-5.79,1.5
			c-0.27-0.5-0.55-1.01-0.82-1.51c3.65-3.15,7.3-6.31,10.82-9.34c-3.78-0.91-3.98-1.12-4.52-5.3c-5.68-1.74-11.69-6.24-16.21,1.99
			c-0.05,0.1-0.17,0.22-0.27,0.23c-1.24,0.17-2.85,0.88-3.62,0.35c-0.96-0.66-1.69-2.33-1.68-3.56c0.01-1.56,0.86-3.12,1.39-4.82
			c-1.35-0.3-2.52-0.6-3.7-0.8c-7.01-1.23-14.04-2.35-21.03-3.67c-3.92-0.74-7.56-2.14-9.66-6.75c1.55,0.09,2.6,0.05,3.6,0.24
			c10.65,2.01,21.29,4.07,31.94,6.1c0.92,0.17,2.22,0.62,2.74,0.2c3.68-2.96,7.46-5.91,8.87-11.32c-2.7,0.7-4.86,1.51-7.09,1.79
			c-3.93,0.5-7.97,1.33-11.82,0.85c-7.07-0.87-13.87-3.25-20.98-4.39c-5.88-0.95-10.84-0.8-15.92,2.02
			c-2.27,1.26-4.71,2.22-7.08,3.31c4.07-6.85,10.57-8.21,17.74-8.09c-0.03-0.29-0.05-0.59-0.08-0.88
			c-6.85-2.07-13.69-4.13-21.24-6.41c0,5.31,0,10.01,0,14.71c-4.3-3.88-6.27-8.61-7.47-13.66c-0.53-2.25-1.43-3.46-3.86-3.96
			c-5.66-1.17-11.31-2.5-16.84-4.16c-2.94-0.89-5.63-2.61-8.43-3.96c9.69-2.7,17.94,2.31,27.24,3.35c-0.54-4.4-0.94-8.46-1.62-12.46
			c-0.14-0.83-1.17-1.73-2.01-2.18c-9.73-5.28-20.12-3.86-30.46-2.85c-0.62,0.06-1.2,0.71-1.76,1.14
			c-5.73,4.42-11.45,8.85-17.18,13.26c-0.57,0.44-1.25,1.12-1.84,1.08c-1.48-0.1-3.47-0.07-4.28-0.97
			c-1.44-1.59-0.65-3.43,1.29-4.42c1.61-0.82,3.42-1.28,4.94-2.22c3.98-2.44,7.86-5.05,11.78-7.6c-7.33-2.72-13.82-5.1-18.96-10.44
			c14.01,3.83,28.09,3.94,42.37,2.2c-1.65-2.33-3.28-4.64-4.82-6.81c-2.67,1.13-5.17,2.19-7.85,3.33c-1.69-5.55,2.8-8.01,5.51-12.21
			c-5.12,1.74-8.48-0.41-12.14-2c-4.14-1.8-8.58-3.05-13-4.04c-4.57-1.02-9.28-1.38-13.91-2.13c-2.78-0.45-4.96-2.31-3.54-4.9
			c0.72-1.33,4.14-1.91,6.18-1.63c3.61,0.49,7.05,2.12,10.64,2.85c9.11,1.85,18.76,2.19,25.42,10.34c2.31-8.34,1.44-18.65-1.7-22.43
			c-0.52,1.86,3.13,4.59-1.02,5.8c-3.33,0.97-6.43-1.34-7.06-4.99c-0.16-0.94-0.11-1.93-0.03-2.88c0.11-1.2,0.28-2.4,0.56-3.57
			c0.59-2.45-0.13-4.06-2.48-5.22c-3.67-1.81-7.29-3.75-10.76-5.91c-2.02-1.25-3.63-3.11-1.8-5.72c1.68-2.38,3.84-3.29,6.52-1.57
			c2.5,1.6,4.96,3.27,8.07,5.33c-2.38-13.04,0.61-26.34-7.27-38.19c-2.78,3.84-4.99,7.88-7.33,11.86
			c-3.28,5.58-6.47,11.23-10.08,16.6c-1.25,1.86-1.74,3.34-0.73,5.18c2.09,3.8,4.4,7.48,6.41,11.32c2,3.83,3.96,7.71,5.42,11.76
			c0.42,1.15-0.99,2.96-1.56,4.47c-1.3-0.75-3.16-1.18-3.83-2.31c-4.37-7.35-8.49-14.85-12.76-22.44
			c-5.94,4.76-10.03,10.71-12.75,17.71c-0.64,1.63-1.67,3.18-2.82,4.51c-0.45,0.52-1.7,0.34-2.58,0.48
			c-0.15-0.96-0.72-2.13-0.38-2.85c1.76-3.69,3.58-7.37,5.73-10.84c2.96-4.8,6.23-9.41,9.67-14.56c-2.25-1.31-4.2-2.72-6.36-3.62
			c-3.4-1.42-5.34-3.85-5.4-7.41c-0.15-8.52-3.88-15.26-9.8-21.07c-1.2-1.18-2.14-2.62-3.53-4.35c5.7-0.44,8.55,3.13,11.91,5.7
			c3.49,5.08,6.57,10.31,7.74,16.52c0.62,3.29,3.17,5.08,6.17,6.26c1.28-5.55,2.71-10.79,3.68-16.11
			c1.96-10.78,3.1-21.54-2.74-31.69c-0.61-1.06-0.72-2.41-1.07-3.63c0.28-0.35,0.57-0.7,0.85-1.05c2,0.96,4.38,1.52,5.9,2.97
			c1.71,1.63,2.65,4.07,3.71,5.8c4.2-3.89,11.32-4.46,13.78-10.11c-3.46-2.54-6.94-4.73-9.97-7.41c-4.24-3.74-8.55-4.42-14.02-2.8
			c-3.59,1.06-7.85,0.88-11.6,0.16c-3.98-0.76-4.92-3.61-2.89-7.17c2.03-3.55,4.44-6.89,6.77-10.26c0.34-0.49,1.22-0.61,1.84-0.91
			c0.24,0.24,0.48,0.47,0.72,0.71c-1.26,2.22-2.63,4.39-3.75,6.68c-1.56,3.22-0.62,5.2,2.93,5.63c2.6,0.32,5.29-0.26,7.91-0.04
			c3.89,0.33,8.16,0.16,11.55,1.75c5.68,2.67,10.79,6.55,15.51,9.53c4.83-0.34,9.34-0.6,13.84-1.02c2.12-0.2,4.58-0.14,6.26-1.2
			c6.45-4.09,12.64-8.59,18.92-12.93c-0.15-0.34-0.29-0.67-0.44-1.01c-1.51-0.07-3.02-0.23-4.53-0.18
			c-6.87,0.24-13.73,0.66-20.6,0.75c-2.19,0.03-3.81,0.33-5.39,2.03c-2.17,2.35-4.88,4.06-8.35,3.25c-0.85-0.2-1.6-0.88-2.39-1.34
			c0.46-0.77,0.82-1.63,1.41-2.28c0.66-0.73,1.52-1.27,2.99-2.45c-3.35-0.19-5.75-0.36-8.14-0.46c-2.19-0.09-4.37-0.35-4.28-3.18
			c0.09-2.74,2.25-3.08,4.44-3.09c2.72-0.01,5.44,0,8.14,0c1.95-15.33,2.83-18.04-2.52-34.63c-2.43-7.53-2.84-14.76,0.15-22.24
			c1.24-3.1,1.44-6.62,2.27-10.67c-2.78,0.82-4.51,1.28-6.21,1.83c-7.53,2.45-7.53,2.46-6.79,10.29c0.12,1.32,0.31,2.64,0.44,3.96
			c1.04,9.83,2.09,19.67,3.1,29.51c0.24,2.32-0.26,4.19-2.78,5.25c-5.65,2.38-11.21,4.99-16.82,7.47c-0.89,0.39-1.84,0.63-3.17,1.08
			c2.05-7.5,6.93-11.27,13.3-13.45c1.86-0.63,3.06-1.24,3.03-3.67c-0.13-9.42,0.05-18.84,0.03-28.25c-0.01-2.42-0.33-4.84-0.54-7.76
			c-2.44,1.55-4.22,2.79-6.09,3.86c-5.65,3.22-11.28,6.49-17.05,9.49c-2.64,1.37-5.59,2.02-9.23,0.13
			c8.49-10.51,21.12-11.35,32.68-15.59c-2.57-9.46-5.09-18.78-7.77-28.64c4.32,0.88,6.35,3.26,7.19,6.12
			c1.2,4.12,1.78,8.44,2.38,12.71c0.41,2.92,0.4,5.9,0.6,9.19c1.79-0.74,3.14-1.21,4.43-1.83c9.72-4.66,9.41-4.64,8.36-15.38
			c-0.86-8.84-1.9-17.87-0.94-26.61c0.74-6.73,4.33-13.17,6.93-19.63c0.57-1.43,2.29-2.4,3.49-3.57c1.25,1.28,3.12,2.35,3.65,3.89
			c2.88,8.34,1.22,16-4.59,22.58c-4.4,4.98-4.99,10.63-3.81,17.17c8.68-7.2,19.07-7.4,29.38-7.66c-3.12-4.97-6.07-9.61-8.95-14.28
			c-1.16-1.89-0.89-3.41,1.41-4.2c4.27,5.74,8.52,11.45,12.38,16.65c4.92-9.41,9.64-18.42,14.71-28.12
			c-4.82-1.09-10.34-3.05-15.95-3.37c-4.26-0.24-8.6,1.79-12.97,2.4c-1.48,0.21-3.14-0.85-4.72-1.33c0.66-1.23,1.01-2.89,2.02-3.62
			c7.38-5.32,15.4-5.72,23.7-2.46c4.12,1.62,8.14,3.48,13.09,5.61c0.65-2.43,1.55-4.46,1.67-6.54c0.31-5.55-1.2-10.69-3.94-15.56
			c-1.03-1.83-1.89-4.06-1.83-6.07c0.04-1.23,1.98-2.4,3.07-3.59c1,1.12,2.57,2.09,2.9,3.37c1.45,5.7,2.55,11.49,3.77,17.24
			c0.4-0.01,0.8-0.03,1.2-0.04c1.44-4.15,2.87-8.3,4.34-12.53c-2.32-0.31-4.29-0.58-6.33-0.85c0.56-3.89,2.99-5.69,5.75-6.99
			c2.97-1.4,5.45-3.12,7.55-5.79c2.63-3.34,6.31-5.24,11.62-4.84c-1.04,1.82-1.69,2.95-2.6,4.56c13.88-3.44,27.3-6.77,40.72-10.1
			c0-0.35-0.01-0.69-0.01-1.04c-1.94-0.48-3.86-1.08-5.83-1.42c-3.44-0.59-7-0.69-10.35-1.6c-4.14-1.13-4.49-3.18-1.54-6.28
			c3.14,0,6.28,0,9.42,0c5.44,1.88,10.85,3.87,16.34,5.57c1.72,0.53,3.73,0.67,5.51,0.37c8.43-1.41,16.82-3.05,25.24-4.56
			c2.47-0.44,5.2-0.71,5.45,2.81c0.23,3.19-2.48,3.22-4.6,3.17c-4.97-0.14-8,2.56-10.6,6.58c0.78,0.24,1.33,0.45,1.9,0.57
			c16.16,3.4,32.33,6.73,48.46,10.24c1.79,0.39,3.37,1.74,5.05,2.65c-0.06,0.3-0.11,0.61-0.17,0.91c4-1.31,8-2.62,12.01-3.93
			c-6.41-2.63-12.76-4.38-19.08-6.22c-6.13-1.78-12.26-3.59-18.35-5.51c-2.17-0.68-5.29-1.03-4.26-4.5
			c1.01-3.41,3.67-2.24,5.99-1.54c0.23,0.07,0.45,0.16,0.68,0.24c13.52,4.41,27.02,8.9,40.59,13.13c2.14,0.67,4.65,0.38,6.97,0.19
			c3.83-0.32,7.62-1.06,11.45-1.32c0.92-0.06,2.3,0.88,2.76,1.74c0.32,0.59-0.48,1.9-0.97,2.77c-0.32,0.56-1,0.93-1.55,1.41
			c7.01,2.41,14.04,4.25,20.54,7.23c6.61,3.04,12.8,7.06,18.96,10.99c1.56,0.99,2.51,3.17,3.35,4.98c0.34,0.73-0.07,2.34-0.69,2.84
			c-0.58,0.45-2.05,0.21-2.88-0.21c-1.67-0.83-3.18-2-5.6-3.58c-1.58,6.73-3.02,12.77-4.37,18.82c-0.13,0.59,0.09,1.55,0.52,1.94
			c2.49,2.25,5.03,4.46,7.68,6.53c1.77,1.38,3.21,1.09,4.85-0.79c2.44-2.79,5.29-5.26,8.16-7.63c0.83-0.68,2.34-0.53,3.54-0.77
			c-0.19,1.23-0.03,2.68-0.63,3.66c-1.25,2.03-2.81,3.91-4.44,5.67c-1.03,1.1-2.41,1.87-3.64,2.79c0.25,0.56,0.51,1.13,0.76,1.69
			c1.78-0.14,3.61-0.08,5.33-0.46c1.74-0.39,3.36-1.57,5.09-1.74c1.39-0.14,3.56,0.26,4.18,1.21c1.2,1.83,0.26,3.71-1.83,4.69
			c-1.72,0.8-3.46,1.55-5.5,2.46c2.91,5.54-0.15,13.47,7.59,16.46c2.19-2.74,3.89-5.67,6.33-7.67c2.17-1.78,2.4-3.22,1.81-5.75
			c-2.03-8.86-3.58-17.8,0.08-26.67c0.43-1.03,1.14-1.95,1.72-2.92c0.41,0.09,0.83,0.19,1.24,0.28c0.42,5,0.96,10,1.24,15.01
			c0.26,4.57-0.06,9.19,0.45,13.72c1.02,9,4.65,17.18,8.89,25.07c5.3,9.88,8.06,20.11,5.17,31.31c-0.12,0.46-0.02,0.97-0.02,2.13
			c5.2-6.19,8.6-11.99,7.43-19.89c-0.8-5.42-0.49-11.03-0.28-16.55c0.05-1.3,1.68-2.55,2.59-3.82c1.03,1.32,2.75,2.53,2.98,3.98
			c1.83,11.56,2.08,22.9-6.18,32.6c-0.93,1.09-1.66,2.39-2.28,3.69c-2.79,5.85-5.88,11.6-8.13,17.65
			c-1.69,4.55-1.39,9.39,1.48,13.99c3.1-2.88,5.83-5.77,8.92-8.22c4.19-3.34,5.78-7.73,6.55-12.81c0.72-4.75,1.69-9.52,3.11-14.1
			c0.81-2.63,2.74-4.9,4.17-7.34c0.46,0.18,0.93,0.36,1.39,0.54c0,1.64,0.18,3.3-0.03,4.91c-0.79,6.09-2.16,12.14-2.44,18.25
			c-0.32,7.21-3.46,12.31-9.22,16.26c-3.25,2.23-6.32,4.73-9.68,7.27c5.4,7.23,8.78,15.9,19.1,17.17c0.28-2.3,0.44-4.59,0.86-6.83
			c1.63-8.62,3.25-17.24,5.13-25.8c0.24-1.09,2.02-1.83,3.09-2.74c0.61,1.29,1.91,2.68,1.73,3.85c-0.81,5.34-1.88,10.65-3.14,15.91
			c-1.17,4.91-2.75,9.72-4.03,14.6c-0.56,2.16,0.29,3.54,2.58,4.32c2.96,1.01,5.64,2.58,7.14,6.86c-3.77-0.54-6.85-0.99-10.59-1.53
			c-0.06,0.99-0.67,2.56-0.13,3.39c4.58,7.05,9.37,13.97,14.1,20.92c0,0.97,0,1.93,0,2.9c-2.82,1.97-4.92,1.47-6.88-1.47
			c-3.52-5.28-7.31-10.38-11.36-16.07c-2.17,11.88-3.86,23.34-6.48,34.59c-1.6,6.88,0.2,12.94,1.96,19.4
			c4.05-5.08,7.95-9.99,11.86-14.89c0.4,0.25,0.79,0.5,1.19,0.75c-2.24,4.6-4,9.53-6.84,13.72c-3.92,5.79-4.99,11.53-3.31,18.32
			c1.17,4.76,1.18,9.81,1.6,14.74c0.18,2.15-0.65,4.24-3.03,3.95c-1.27-0.15-2.82-1.89-3.34-3.26c-0.71-1.85-0.55-4.03-0.76-6.07
			c-0.36-3.49-0.73-6.97-1.15-11.08c-1.53,1.75-2.52,2.89-4.17,4.78c1.41-6.79,5.46-12.4,1.99-18.82
			c-2.3,10.28-4.62,20.38-6.78,30.51c-0.62,2.9-1.5,5.33-4.84,5.77c-0.11,2.49-0.04,4.8-0.41,7.04c-0.13,0.78-1.33,1.38-2.05,2.06
			c-0.66-0.73-1.36-1.44-1.95-2.22c-0.18-0.23-0.02-0.71-0.05-1.07c-0.51-7.57-1.01-15.14-1.58-22.7c-0.06-0.86-0.33-1.85-0.85-2.5
			c-1.3-1.66-3.03-3-4.18-4.74c-5.1-7.76-9.96-15.68-15.1-23.43c-3.25-4.91-6.83-9.59-10.33-14.46c-7.15,8.4-9.29,21.39-5.21,30.69
			c3.51-5.44,3.41-12.63,8.8-17.7c4.91,10.67-2.86,17.24-6.97,24.95c5.84,5.5,11.65,10.97,17.64,16.61
			c1.97-5.58,3.7-10.72,5.64-15.78c0.35-0.9,1.51-1.5,2.3-2.23c0.83,1.08,1.8,2.09,2.42,3.28c0.25,0.48-0.24,1.38-0.45,2.06
			c-1.42,4.6-2.72,9.25-4.34,13.78c-0.91,2.54-0.42,4.18,1.22,6.41c5.4,7.36,10.34,15.06,15.43,22.65c1.37,2.04,1.19,3.98-1.09,5.21
			c-2.45,1.32-3.65-0.21-4.79-2.22c-3.75-6.6-7.63-13.12-11.51-19.65c-0.43-0.72-1.14-1.28-1.72-1.91
			c-0.32,0.09-0.63,0.18-0.95,0.28c0,5.25-0.37,10.52,0.08,15.73c0.81,9.27,3.63,18.62-2.7,27.35c2,0.85,3.93,1.23,5.22,2.35
			c1.03,0.9,1.82,2.73,1.69,4.05c-0.07,0.69-2.29,1.35-3.63,1.66c-0.7,0.16-1.68-0.3-2.37-0.74c-4.46-2.86-7.82-1.19-10.73,2.5
			c-0.3,0.38-0.67,0.71-0.95,1.09c-5.07,6.89-10.15,13.77-15.17,20.69c-1.5,2.06-3.17,3.62-5.67,1.79c-2.46-1.8-1.16-3.85,0.17-5.66
			c3.71-5.06,7.55-10.03,11.2-15.13c2.28-3.19,4.32-6.54,6.62-10.05c-5.8-2.46-10.85-4.35-15.7,0.67c-1.57,1.63-3.7,2.7-5.47,4.15
			c-7.1,5.78-12.44,12.62-14.33,21.93c-0.92,4.51-0.96,8.21,3.39,10.89c0.9,0.55,1.94,1.39,2.23,2.31c0.43,1.39,0.24,2.96,0.32,4.45
			c-1.4,0-3.04,0.47-4.16-0.1c-1.73-0.88-3.11-2.47-3.97-3.19c-3.99,3.21-7.63,6.07-11.21,9.02c-2.31,1.9-4.46,4-6.81,5.85
			c-1.11,0.88-2.5,1.4-3.76,2.09c0.04-1.51-0.53-3.54,0.23-4.44c2.64-3.09,5.82-5.7,8.64-8.64c2.23-2.32,4.33-4.78,6.27-7.35
			c0.48-0.63,0.51-2.35,0.02-2.84c-4.14-4.17-8.44-8.18-12.73-12.27c-8.19,6.51-16.03,12.74-23.87,18.97
			c-0.46-0.46-0.92-0.92-1.38-1.39c1.6-9.16,11.24-11.92,15.67-17.96c-10.58-9.39-21.1-18.76-31.66-28.08
			c-0.76-0.67-1.79-1.32-2.75-1.44c-8.41-1-16.39,0.94-24.82,3.76c7.15,4.08,13.8,7.97,20.58,11.61c1.08,0.58,2.91,0.33,4.19-0.11
			c2.65-0.91,5.09-2.69,8.66-1.39c-0.94,1.7-1.72,3.11-2.61,4.72c0.9,0.32,1.87,0.5,2.66,0.97c4.56,2.65,9.26,5.1,13.54,8.14
			c2.55,1.81,4.18,4.67,3.16,8.23c-3.31,1.37-5.33-0.66-7.32-2.61c-5.15-5.02-11.44-7.61-18.83-9.37c0.39,1.31,0.48,2.01,0.8,2.6
			c2.62,4.79,2.94,9.84,1.99,15.11c-1,5.53,0.76,10.24,4.57,14.25c1.83,1.92,3.98,3.62,5.42,5.8c0.76,1.16,0.97,3.56,0.26,4.63
			c-1.32,1.98-3.21,0.98-4.5-0.57c-2.67-3.2-5.26-6.47-7.99-9.86c-1.31,2.6-2.57,5.3-4.01,7.91
			C278.42,505.49,275.03,511.43,271.68,517.4z M355.68,431.58c4.88,0.42,9.51,0.48,13.99,1.32c3.04,0.57,4.6-0.48,4.98-3.04
			c1.08-7.29,2.19-14.54,0.3-21.99c-0.98-3.86-0.74-8.07-0.71-12.13c0.02-2.47,0.8-4.93,1.05-7.41c0.25-2.51,0.26-5.05,0.38-7.57
			c-4.53,6.93-8.18,14.25-12.26,21.32c-1.83,3.17-4.43,5.91-6.85,8.7c-0.49,0.57-1.72,0.49-2.62,0.71
			c-0.24-0.97-0.94-2.15-0.62-2.88c1.42-3.28,2.85-6.62,4.81-9.58c4.99-7.55,10.38-14.83,15.39-22.36
			c4.7-7.05,4.46-13.81-0.76-20.62c-2.71-3.53-5.97-6.63-8.89-10c-1.1-1.27-1.95-2.76-3.16-4.52c6.29-0.9,8.3,4.05,11.04,6.3
			c2.88-6.31,5.74-12.59,8.31-18.21c-2.5-0.26-5.55-0.57-8.6-0.88c-0.06-0.49-0.12-0.97-0.18-1.46c2.81-1.5,5.61-3,8.68-4.64
			c-2.43-2.88-4.86-5.74-7.13-8.43c-3.8,3.96-7.25,7.65-10.8,11.24c-3.95,4.01-6.41,8.65-6.97,14.34
			c-0.55,5.64-1.65,11.25-1.92,16.9c-0.34,7.06-0.08,14.14-0.08,22.01c8.76-17.44,9.33-18.1,15.35-16.91
			c-1.49,3.16-2.74,6.17-4.29,9.01c-2.88,5.27-6.78,10.15-8.73,15.73c-3.55,10.18-5.99,20.75-9.14,32.04
			c3.82-0.52,7.56-0.9,11.24-1.56c2.76-0.49,5.16,0.33,6.03,2.72c0.99,2.72-1.89,3.22-3.68,3.91c-4.86,1.87-9.89,2.17-14.93,0.83
			c-1.98-0.53-2.96,0.14-3.51,1.91c-1.46,4.72-2.79,9.48-4.42,14.13c-0.84,2.39-2.21,4.58-3.34,6.87
			c-4.81-8.37-2.04-15.89,1.1-23.15c-9.03,0.76-17.85,2.16-26.64,2.04c-8.69-0.12-17.36-1.77-26.04-2.75
			c2.55-1.5,5.07-2.06,7.28-3.22c5.25-2.75,10.37-2.72,16.08-1.21c4.15,1.1,8.78,0.9,13.13,0.53c5.74-0.49,11.39-1.91,17.12-2.53
			c2.24-0.24,3.43-0.85,4.27-2.94c1.98-4.92,3.98-9.85,6.37-14.58c2.36-4.67,2.61-9.38,1.81-14.4c-1.99-12.54-3.68-25.08-0.8-37.75
			c2.39-10.52,1.98-21.03,0.07-31.62c-2.4-13.33-5.65-26.67-1.65-40.93c-2.78,0.65-4.92,1.16-7.08,1.67
			c2.41-4.59,6.75-6.76,12.67-5.97c7.18,0.96,14.31,2.05,21.56,0.36c4.47-1.04,9.03-1.73,13.55-2.58c-1.22-1.38-2.76-1.63-3.88-2.46
			c-4.91-3.64-10.23-6.93-14.43-11.29c-13.75-14.27-27.58-28.38-44.1-39.56c-3.27-2.21-6.24-4.96-9.03-7.77
			c-2.46-2.48-3.64-5.58-2.03-9.62c1.94,1.43,3.64,2.68,5.21,3.83c2.51-1.22,4.84-2.35,7.22-3.51
			c-5.49-6.88-19.08-15.72-23.72-15.72c0.41,2.67,0.83,5.39,1.24,8.1c-0.45,0.26-0.91,0.52-1.36,0.78c2.01,1.44,4.02,2.89,6.38,4.58
			c-5.36,2.26-9.53,1.26-12.95-1.4c-4.06-3.16-7.83-6.79-11.27-10.62c-2.69-2.99-5.25-5.67-9.15-7.23c-3.91-1.56-7.6-3.89-9.76-8.35
			c1.69-0.17,2.95-0.3,4.53-0.46c-0.7-0.63-1.16-1.16-1.71-1.53c-6.41-4.27-12.82-8.55-19.29-12.74c-0.58-0.38-1.62-0.44-2.3-0.22
			c-7.32,2.36-13.99,5.67-19.09,11.81c-2.17,2.62-5.24,4.55-8.05,6.57c-3.22,2.31-6.67,4.31-9.93,6.56
			c-5.55,3.84-10.96,7.87-16.55,11.64c-4.8,3.23-9.79,6.19-14.68,9.29c-7.49,4.74-13.05,10.92-15.53,19.7
			c-0.62,2.18-2.15,4.32-3.8,5.95c-6.68,6.61-13.74,12.84-20.31,19.55c-5.4,5.51-11.01,10.44-18.57,12.73
			c-6.7,2.03-9.59,7.86-13.6,13.57c4.63,0,8.79,0.84,12.44-0.16c10.83-2.98,21.04-0.53,31.28,2.43c0.88,0.25,2.21,1.37,2.13,1.92
			c-0.13,0.97-1,2.18-1.9,2.63c-1.55,0.79-3.35,1.08-4.09,1.3c-0.86,6.01-1.76,11.41-2.35,16.85c-0.33,3.07-0.49,6.23-0.15,9.29
			c0.84,7.65,2.35,15.24,2.88,22.9c0.23,3.28-1.29,6.67-2.01,10.01c-0.48-0.06-0.96-0.13-1.45-0.19
			c-2.12-11.37-4.24-22.74-6.36-34.12c-0.35-0.01-0.69-0.02-1.04-0.03c-2.1,7.4-4.22,14.79-6.29,22.19
			c-0.16,0.56-0.31,1.32-0.06,1.77c1.99,3.58,4.07,7.1,6.12,10.64c0.33-0.1,0.66-0.2,0.99-0.3c-0.87-6.21-1.73-12.43-2.75-19.74
			c1.55,1.89,2.8,2.82,3.24,4.05c6.68,18.5,7.82,37.77,7.67,57.23c4.23-1.54,8.34-3.03,12.45-4.53c-0.43,2.2-1.04,4.04-2.3,5.16
			c-2.5,2.23-5.43,3.98-8.01,6.13c-0.98,0.81-2.24,2.27-2.11,3.27c1.26,9.41,2.79,18.78,4.28,28.38c3.76-0.63,7.05-1.42,10.39-1.7
			c11.74-0.99,23.04,1.25,34.11,4.99c1.44,0.49,3.13,1.05,4.51,0.74c4.33-0.97,8.58-2.35,12.39-3.43c0-1.71-0.52-3.93,0.11-4.33
			c1.2-0.75,3.09-0.76,4.62-0.53c1.5,0.23,2.87,1.21,4.34,1.75c0.99,0.36,2.11,0.9,3.06,0.74c9.6-1.68,19,0.37,28.46,1.29
			c8.85,0.86,17.76,2.48,26.36-1.68c1.16-0.56,2.95,0.16,4.44,0.29c-0.47,1.51-0.58,3.3-1.49,4.47c-0.97,1.26-2.57,2.36-4.11,2.78
			c-3.11,0.85-6.39,1.81-9.54,1.64c-10.34-0.56-20.66-1.6-30.98-2.46c-1.72-0.14-3.44-0.3-5.16-0.45c4.34,4.09,8.15,9.29,15.08,5.28
			c0.7-0.41,2.41,0.11,3.1,0.77c0.42,0.4-0.07,1.95-0.41,2.89c-0.24,0.67-0.91,1.19-1.82,2.32c1.96,0.33,3.34,0.83,4.69,0.75
			c9.03-0.5,18.06-1.19,27.09-1.68c6.27-0.34,12.55-0.45,18.53,3.18c-1.24,0.54-2.25,0.98-3.37,1.47c4.07,2.78,8.04,5.5,12.02,8.2
			c0.39,0.26,0.93,0.67,1.27,0.57c5.61-1.69,9.39,1.87,13.24,4.77c3.44,2.59,6.54,5.62,10.52,9.1c0.72-2.14,1.24-3.67,1.62-4.78
			c11.46-5.16,22.87-10.3,34.27-15.44c-0.1-0.33-0.2-0.66-0.31-0.99c-1.05-0.17-2.09-0.37-3.14-0.5c-4.07-0.5-8.15-0.92-12.22-1.48
			c-1.97-0.27-4.21-1.52-2.39-3.39c2.06-2.11,5.29-3.09,8-4.56c0.21,0.31,0.43,0.63,0.64,0.94
			C356.19,429.92,355.97,430.65,355.68,431.58z M206.35,482.36c5.9,1.66,11.52,3.35,17.21,4.81c4.64,1.19,9.14,0.44,13.13-2.22
			c9.94-6.62,19.82-13.33,29.68-20.07c3.14-2.15,6.15-4.48,9.26-6.77c-3.27-5.57-6.97-10.33-12.34-13.02
			c-6.53-3.27-13.4-5.89-20.23-8.51c-4.33-1.66-5.94-0.89-8.85,3.18c4.57,1.42,9.13,2.85,13.95,4.35c-2.08,3.58-5.01,4.43-8.25,4.04
			c-4.18-0.5-8.3-1.76-12.47-1.95c-2.05-0.09-5.06,0.87-6.1,2.4c-2.25,3.31-3.52,7.29-5.32,11.29c7.31,0.86,13.62-0.78,19.66-3.69
			c4.12-1.99,8.02-4.54,12.3-6.08c2.49-0.9,5.57-0.58,8.29-0.18c0.78,0.11,1.67,2.44,1.66,3.74c0,0.74-1.61,1.82-2.68,2.16
			c-4.78,1.5-9.62,2.77-14.43,4.17c-5.99,1.74-11.94,3.59-17.95,5.23c-2.43,0.66-4.99,0.82-7.47,1.33
			c-0.75,0.15-1.78,0.51-2.06,1.08C210.99,472.37,208.8,477.16,206.35,482.36z M235.46,97.59c-6.44-3.35-10.65-3.83-16.92-2.94
			c-13.73,1.94-25.88,8-38.32,13.61c-6.78,3.06-11.11,7.17-13.87,13.94c-2.79,6.85-6.52,13.31-10.22,20.7
			c26.76,2.9,50.11-8.23,74.22-15.85c-2.55-0.43-5.1-0.77-7.52-0.34c-2.3,0.42-4.46,1.65-7.2,2.73c1.07-2.53,1.99-4.7,2.96-6.98
			c-3.04,0.24-6.19,1.22-8.95,0.56c-7.6-1.82-13.85,0.97-20.14,4.47c-2.08,1.16-4.43,1.95-6.75,2.52c-1.85,0.46-3.85,0.32-6.3,0.48
			c3.29-6.16,9.03-7.84,14.28-10.84c-5.45-2.03-11.11-2.92-14.64-9c3.44,0,6.14-0.46,8.62,0.1c4.45,1.01,8.73,2.72,13.14,3.94
			c1.41,0.39,3.09,0.51,4.49,0.14c5.47-1.45,10.8-3.51,16.32-4.67C226.32,108.55,231.42,103.9,235.46,97.59z M101.97,263.89
			c6.87-7.26,10.19-15.42,11.57-24.42c0.25-1.67-0.03-3.62-0.68-5.19c-2.37-5.67-5.32-11.12-7.44-16.87
			c-1.65-4.46-2.73-9.2-3.43-13.91c-0.54-3.67,2.29-5.95,5.73-4.46c2.39,1.04,4.8,3.33,5.93,5.68c2.97,6.18,2.59,12.85,1.59,19.52
			c-0.37,2.49,0.13,5.12,0.25,8.1c3.77-2.68,6.76-4.71,9.65-6.87c3.4-2.55,5.38-5.51,5.42-10.29c0.03-4.15,1.42-8.62,3.36-12.34
			c2.11-4.05,5.55-7.42,8.77-11.53c-2.44-2.99-5.23-6.44-8.09-9.83c-0.42-0.5-1.17-1-1.79-1.02c-6.97-0.26-14-1.07-20.9-0.45
			c-7.51,0.68-12.26,7.05-11.68,14.09c1.25-0.58,2.41-1.19,3.62-1.67c7.04-2.81,14.1-5.59,21.15-8.37c2.14-0.84,4.2-0.91,5.14,1.58
			c1.04,2.76-1.16,3.59-3.14,4.27c-8.31,2.86-16.65,5.63-24.94,8.56c-1.04,0.37-2.28,1.29-2.66,2.25
			c-1.61,4.11-2.61,8.49-4.45,12.48c-2.44,5.31-3.16,10.64-1.43,16.17c1.19,3.79,2.63,7.51,4.22,11.14
			c2.76,6.29,4.23,12.8,4.04,19.68C101.73,261.25,101.88,262.29,101.97,263.89z M139.77,170.65c0.31,0.36,0.62,0.71,0.93,1.07
			c2.83-2.3,5.77-4.47,8.45-6.94c3.11-2.88,6.35-5.43,10.85-4.68c3.56,0.6,6.69,0.81,9.07-2.64c0.6-0.86,2.05-1.46,3.18-1.58
			c7.63-0.82,15.27-1.67,22.93-2.11c2.59-0.15,3.88,2.32,3.01,4.56c-2.54,6.49-10.64,10.91-17.43,9.3c-3.16-0.75-6.21-1.91-9.31-2.9
			c-5.52-1.77-10.72-1.67-15.1,2.75c-5.04,5.09-10.48,9.57-18.26,11.83c8.94,8.01,17.43,15.62,25.93,23.25
			c1.47-1.23,4.08-4.06,7.25-5.9c6.16-3.58,9.76-8.56,11.28-15.52c1.29-5.91,4.66-10.73,9.49-14.56c2.4-1.9,4.66-4.08,6.59-6.44
			c3.35-4.11,6.37-8.49,9.59-12.71c1.92-2.51,3.96-4.93,6.47-8.05c-9.44,2.6-18.02,4.96-26.59,7.32
			c-11.1,3.06-22.21,4.42-33.45,0.54c-0.77-0.27-2.3,0.05-2.74,0.64C146.71,154.85,142.36,162.29,139.77,170.65z M400.48,198.06
			c-10.27,14.38-12.52,23.51-9.88,40.53c0.18,1.17,1.21,2.66,2.25,3.16c6.48,3.13,10.4,8.35,13.04,14.83
			c1.15,2.81,2.02,5.37-1.42,7.32c2.66,0.9,4.95,1.6,7.19,2.46c2.2,0.84,4.34,1.83,6.59,2.79c1.19-8.02-0.99-18.03-5.09-24.02
			c-2.25-3.28-4.59-6.5-6.78-9.82c-2.58-3.92-5.27-7.79-7.45-11.92c-1.14-2.16-1.29-4.85-1.89-7.3c0.48-0.2,0.96-0.4,1.43-0.6
			c10.35,7.04,11.31,20.33,18.35,29.61c3.09-14,9.01-27.63,2.81-40.81c-2.84-0.3-5.34-0.11-7.48-0.89
			C408.23,201.95,404.5,199.93,400.48,198.06z M434.7,329.71c0.44,0.06,0.87,0.11,1.31,0.17c2.76-10.54,5.52-21.07,8.3-31.69
			c-6.13,1.98-11.47,3.75-16.85,5.42c-6.18,1.92-9.89,7.2-13.13,11.82c-3.05,4.35-3.39,10.41-1.01,16.27
			c2.75,6.76,4.67,13.9,6.5,20.99c1.09,4.21,2.5,8.83-1.61,11.95c1.62,5.22,3.15,10.11,4.75,15.26c2.73-10.66,5.3-21.16,8.14-31.59
			c0.98-3.61,0.9-6.95-0.07-10.54c-2.58-9.5-3.14-19.23-2.65-29.02c0.05-0.99,1.02-1.94,1.56-2.9c0.95,0.61,2.39,1.01,2.76,1.87
			c0.74,1.71,1.12,3.66,1.25,5.53C434.32,318.72,434.47,324.22,434.7,329.71z M303.92,177.26c-2.89-8.41-5.77-16.79-8.65-25.17
			c0.44-0.2,0.87-0.39,1.31-0.59c1.56,3.16,3.09,6.33,4.69,9.47c2.18,4.27,4.18,8.66,6.71,12.71c1.83,2.93,6.05,4.18,6.14,8.49
			c0.01,0.3,0.69,0.6,1.08,0.86c5.16,3.55,10.3,7.12,15.5,10.6c0.59,0.4,1.67,0.69,2.22,0.42c3.83-1.89,7.57-3.95,11.6-6.09
			c-2.63-2.9-5.13-5.36-7.28-8.09c-4.31-5.48-9.33-9.52-16.63-10.2c-2.07-0.19-4.15-1.28-6.02-2.31c-1.45-0.8-2.59-2.15-3.87-3.26
			c0.14-0.38,0.28-0.76,0.42-1.14c2.89-0.2,5.77-0.41,8.79-0.62c-5.59-6.1-11.25-12.27-17.1-18.64c-4.32,3.51-8.59,6.85-12.67,10.42
			c-0.67,0.58-0.95,2.37-0.57,3.25c1.94,4.54,4.36,8.88,6.2,13.46C297.31,174.65,299.6,177.08,303.92,177.26z M258.99,136.15
			c-8.71-8.18-11.61-8.37-20.39-1.71c-1.25,0.95-2.5,1.9-3.84,2.71c-3.19,1.92-6.44,3.75-9.67,5.62c-0.12-0.21-0.25-0.42-0.37-0.63
			c3.52-3.26,7.04-6.52,10.87-10.06c-6.33,0.91-11.51,3.17-14.74,7.53c-8.03,10.84-15.79,21.88-23.5,32.95
			c-1.65,2.37-3.07,4.34-6.62,2.7c-1.26,4.45-2.43,8.56-3.81,13.44c6.61-3.45,10.85-8.17,15.37-12.66
			c3.79-3.77,8.31-6.79,12.53-10.12c2.73-2.15,5.9-3.88,8.16-6.43c3.55-4.01,7.62-6.95,12.6-8.78c2.54-0.94,5.01-2.05,7.36-3.02
			c-1.01-2.52-2.07-4.58-2.62-6.77c-0.31-1.23,0.23-2.68,0.38-4.02c1.25,0.46,2.78,0.6,3.69,1.43c1.86,1.67,3.39,3.71,5.26,5.82
			C252.81,141.44,255.88,138.81,258.99,136.15z M95.44,322.84c0.67,1.86,1.94,4.15,2.31,6.58c1.75,11.53,3.92,23.06,4.6,34.67
			c0.39,6.66,3.44,11.12,7.4,15.86c1.99-5.06,3.81-10,5.9-14.84c1.07-2.47,0.89-4.29-0.8-6.55c-4.3-5.77-6.17-12.26-3.85-19.38
			c0.43-1.31,1.77-3.17,2.78-3.23c1.33-0.08,2.93,1.19,4.09,2.23c1.11,1,1.8,2.46,3.22,4.49c0.46-4.09,0.68-7.29,1.21-10.43
			c0.52-3.11-0.22-5.64-2.44-7.86c-5.05-5.06-10.06-10.17-14.68-14.85C102.25,313.53,98.97,318.02,95.44,322.84z M354.89,324.64
			c4.67-5.58,9.03-10.8,13.34-15.96c-4.59-6.34-10.35-11.48-11.97-19.07c0.39-0.34,0.78-0.67,1.17-1.01
			c4.84,4.8,9.67,9.6,14.57,14.46c-1.05-11.57,3.15-17.07,16.16-21.26c-0.49-2.54-0.98-5.1-1.68-8.72
			c-5.01,1.17-9.9,2.31-14.78,3.46c0.05,0.34,0.1,0.69,0.15,1.03c1.26,0.81,2.52,1.62,3.87,2.48c-9.51,3.17-17.03-4.43-25.94-4.17
			C345.78,292.66,351.49,308.31,354.89,324.64z M213.5,444.48c-7.65-1.92-15.15-2.09-22.59-0.57c-6.35,1.29-12.54,1.52-18.12-2.23
			c-8.91-5.97-17.59-3.04-25.77-0.17c-3.82-1.34-7.27-2.54-11.32-3.96c1.26,4.13,2.47,7.41,3.22,10.8c0.49,2.21,1.56,3.22,3.66,3.75
			c9.45,2.39,18.86,4.95,28.32,7.26c1.33,0.32,3.01-0.11,4.35-0.64c8.59-3.4,17.09-7.03,25.71-10.35
			C205.04,446.8,209.32,445.76,213.5,444.48z M362.92,163.78c-12.52-0.58-16.55-2.68-23.31-12.49c-0.96-1.39-0.89-3.49-1.29-5.26
			c0.37-0.17,0.74-0.35,1.11-0.52c-6.27-3.57-12.52-7.19-18.85-10.66c-0.89-0.49-2.41-0.64-3.28-0.22
			c-2.79,1.36-5.41,3.06-8.31,4.76c4.03,4.8,8.28,9.01,11.52,13.89c6.9,10.41,16.05,17.24,28.22,20.2
			c3.99,0.97,7.79,2.75,11.95,4.26C361.47,172.78,362.17,168.41,362.92,163.78z M342.05,114.61c-3.49-1.19-6.75-2.38-10.07-3.4
			c-1.45-0.45-3.12-1.06-4.5-0.75c-15.04,3.39-30.04,6.93-45.05,10.48c-1.32,0.31-2.57,0.95-4.17,1.56
			c2.69,9.29,5.25,18.14,7.92,27.34c5.15-3.39,9.72-6.4,13.96-9.19c-1.18-4.94-7.8-7.29-4.94-13.41c-0.12-0.1-0.29-0.27-0.49-0.39
			c-2.33-1.39-5.15-3.07-3.93-5.97c0.44-1.04,4.53-1.41,6.53-0.76c6.38,2.08,12.54,4.82,18.82,7.21c1.12,0.43,2.74,0.95,3.59,0.46
			C327.14,123.58,334.43,119.15,342.05,114.61z M381.07,434.72c2.74,0.71,5.89,1.46,9,2.34c4.67,1.32,5.73,1.35,6.74-3.35
			c1.39-6.51,1.74-13.27,2.17-19.95c0.46-7.06,0.53-14.15,0.72-21.22c0.02-0.9,0.01-2.06-0.5-2.67
			c-5.42-6.55-10.95-13.01-16.44-19.5c-0.38,0.12-0.76,0.24-1.14,0.36c-0.68,4.85-1.37,9.7-2.1,14.91c2.54-1.3,4.47-2.52,6.57-3.33
			c3.64-1.4,6.02,0.22,5.29,4c-1.43,7.4-3.16,14.78-5.33,22c-0.73,2.42-3.23,4.3-4.83,6.49c-0.67,0.91-1.54,1.98-1.57,3
			c-0.09,2.86,0.14,5.74,0.38,8.6C380.26,428.98,380.67,431.56,381.07,434.72z M231.79,432.39c-3.89-2.92-7.28-6.89-11.49-8.22
			c-3.95-1.25-8.77,0.3-13.21,0.61c0.02,0.36,0.04,0.72,0.07,1.08c1.69,0.81,3.39,1.63,5.53,2.66c-3.8,2.7-7.37,2.15-10.66,0.74
			c-4.81-2.06-9.48-2.24-14.34-0.5c-1.23,0.44-2.58,0.64-3.89,0.78c-4.11,0.44-8.27,1.2-12.29-1.82c3.82-0.93,7.64-1.85,11.48-2.79
			c-7.75-3.09-22.89-3.27-33.79-0.31c0.25,2.83,0.51,5.73,0.85,9.53c10.75-6.02,19.62-2.54,28.65,3.07
			c3.25,2.02,8.26,2.73,12.07,2.01c10.88-2.07,21.63-3.3,32.61-1.25c0.8,0.15,1.91-0.23,2.6-0.74
			C227.97,435.74,229.83,434.04,231.79,432.39z M367.32,125.84c-6.08-2.87-13.18-6.22-21.31-10.06c1.55,4.24-0.72,5.15-2.99,6.21
			c-6.16,2.85-12.29,5.79-18.43,8.7c13.3,5.47,24.72,14.86,38.95,16.21C364.78,139.99,365.97,133.35,367.32,125.84z M293.06,113.07
			c-15.99-4.35-31-8.31-45.91-12.6c-3.15-0.91-5.21-0.56-7.15,1.98c-4.74,6.18-10.9,9.99-18.62,11.45
			c-2.87,0.54-5.59,1.87-8.38,2.84c0.12,0.36,0.24,0.72,0.36,1.07c3.56-1,7.29-1.6,10.64-3.08c6.87-3.03,13.62-2.62,19.08,2
			c6.71,5.69,13.44,5.63,20.93,2.83c1.01-0.38,2.08-0.62,3.15-0.77c2.99-0.42,5.24-1.38,4.8-5.1c-0.09-0.76,0.61-1.61,1.18-3
			c1.6,2.21,2.83,3.93,4.14,5.75C282.26,115.37,287.27,114.3,293.06,113.07z M284.49,159.12c-1.94,1.26-3.34,2.55-4.98,3.12
			c-1.34,0.46-2.99,0.05-4.5,0.03c0.38-1.49,0.38-3.27,1.23-4.41c1.12-1.49,3-2.39,4.39-3.72c0.65-0.63,1.47-1.85,1.26-2.5
			c-2.92-9.17-5.99-18.28-9.09-27.57c-4.24,1.16-8.45,2.3-13.25,3.61c1.85,1.23,3.13,2.09,4.45,2.97c1.46-1.18,2.77-2.26,4.09-3.33
			c0.36,0.08,0.73,0.16,1.09,0.24c-3.92,5.43,1.87,8.74,2.44,14.13c-2.96-0.55-5.41-1.01-7.59-1.42c-3.49,3.17-6.92,6.28-10.63,9.64
			c2.95,2.23,5.76,4.29,8.5,6.45c5.86,4.62,11.91,9.04,17.41,14.06c3.09,2.82,6.32,3.51,10.38,3.51
			C287.93,168.94,286.27,164.19,284.49,159.12z M151.09,202.31c-2.8,4.45-4.99,9.4-8.48,13.14c-5.04,5.42-11.12,9.86-16.53,14.96
			c-2.39,2.25-4.89,4.81-6.16,7.74c-1.63,3.77-2.08,8.06-3.08,12.29c6.29-1.65,11.3-4.99,15.4-9.71
			c6.06-6.97,12.9-12.97,20.91-17.64c1.05-0.61,1.8-2.09,2.25-3.32c1.04-2.81,1.9-5.69,2.62-8.59c0.23-0.93,0.14-2.4-0.45-3
			C155.41,205.96,152.98,203.99,151.09,202.31z M352.2,196.95c-1.84,2.3-3.57,4.45-5.3,6.61c-4.89,6.14-8.93,6.37-14.54,0.93
			c-0.66-0.64-1.79-1.32-2.6-1.21c-2.44,0.32-4.83,1.02-7.79,1.7c3,2.52,5.66,4.88,8.45,7.08c6.48,5.13,12.4,11.08,20.35,14.08
			c1.08,0.41,2.3,1.19,3.28,0.99c7.09-1.47,13.09-5.03,17.9-9.56c-3.71-3.85-7.28-7.56-11.09-11.52
			c-1.64,6.41-0.65,13.63-6.63,18.59c-0.72-2.66-1.37-5.35-1.1-7.95c0.39-3.81,1.18-7.63,2.25-11.31
			C356.46,201.75,355.75,199.07,352.2,196.95z M408.12,313.58c1.04-1.67,2.23-2.87,2.57-4.26c2.34-9.59,4.48-19.22,6.71-28.84
			c0.92-3.95,0.36-5.19-3.54-6.47c-4.34-1.43-8.86-2.39-13.1-4.06c-1.85-0.73-4.53-2.78-4.49-4.15c0.09-2.95,3.18-1.96,5.23-2.09
			c0.16-0.01,0.3-0.18,0.61-0.38c-2.9-0.92-5.65-1.79-9.07-2.88c1.72,4.2-0.91,8.89,3.61,11.69c0.33,0.2,0.22,2.02-0.03,2.11
			c-4.36,1.57-1.76,4.94-2.55,7.99c1.9,0,3.39-0.27,4.71,0.07c1.44,0.37,2.74,1.3,4.11,1.99c-0.78,1.19-1.45,2.47-2.36,3.55
			c-0.66,0.79-1.63,1.32-1.67,1.35C401.93,297.31,404.82,304.9,408.12,313.58z M68.73,345.92c0.55,0.19,1.1,0.38,1.66,0.57
			c5.12-8.15,10.24-16.29,15.41-24.51c-2.55-2.29-4.75-4.26-7.05-6.32c4.67-4.25,8.23-1.22,11.88,1.26
			c6.64-5.45,10.88-12.29,13.57-20.48c-6.58,0.24-11.66,2.73-15.9,7.3c-4.01,4.33-8.97,6.33-13.97,5.3
			C72.46,321.29,70.59,333.61,68.73,345.92z M396.1,291.66c-1.26,1.34-2.48,2.57-3.62,3.88c-3.81,4.35-7.82,8.18-14.24,8.09
			c-2.12-0.03-3.54,3.76-2.2,5.59c2.55,3.51,5.22,6.94,7.89,10.35c1.61,2.06,3.63,2.62,6.09,1.46c4.46-2.1,8.94-4.13,13.59-6.27
			c-1.31-3.87-2.62-7.6-3.85-11.37C398.55,299.68,397.42,295.92,396.1,291.66z M121.4,365.39c-6.67,18.28-9.62,33.07-7.86,39.36
			c2.74-1.22,5.45-2.42,8.23-3.66c-1.48-7.65-5.06-14.95-1.74-23.27c5.52,5.75,5.8,12.82,7.34,19.49c6.41-4.5,9.66-11.67,9.82-20.41
			C131.81,372.98,126.75,369.29,121.4,365.39z M382.69,211.75c-0.27-4.25-0.46-8.79-0.87-13.32c-0.84-9.32-7.36-15.18-17.15-15.48
			c-0.73,4.12-1.6,8.24-2.11,12.4c-0.14,1.19,0.41,2.84,1.25,3.7c4.02,4.14,8.38,7.96,12.34,12.16
			C378.2,213.38,379.99,213.75,382.69,211.75z M107.26,301.87c5.14,6.69,9.46,13.77,16.03,18.78c2.49-8.36,4.88-16.41,7.28-24.47
			C117.39,292.77,111.67,294.18,107.26,301.87z M137.62,394.57c-3.09,2.77-5.92,5.16-8.54,7.76c-0.59,0.59-0.76,1.96-0.6,2.89
			c1.03,6.28,2.12,12.56,3.36,18.8c1.04,5.26,4.46,7.91,9.9,8.14c2.28-5.65-1.31-8.86-6.38-12.05c2.88-1.17,4.57-1.85,6.55-2.65
			C140.51,410.02,139.08,402.41,137.62,394.57z M440.26,291.73c-1.72-9.6-10.39-10.11-17.27-13.79c-1.99,7.76-3.87,15.06-5.74,22.36
			C423.82,293.68,434.21,298.04,440.26,291.73z M389.3,326.8c4.89,6.29,9.27,11.92,14.24,18.32c0.1-9.36,6.15-17.38,0.86-26.55
			C399.5,321.24,394.6,323.91,389.3,326.8z M368.07,180.02c10.02,3.53,19.08,6.75,28.19,9.85c0.7,0.24,1.72-0.46,2.59-0.73
			c0.01-0.41,0.02-0.82,0.03-1.23c-7.15-1.13-9.53-6.01-10.37-12.25c-0.23-1.71-1.06-3.34-1.75-5.39
			C380.46,173.56,374.62,176.6,368.07,180.02z M182.72,461.54c0.04,0.42,0.08,0.85,0.12,1.27c3.13,1.12,6.26,2.26,9.41,3.33
			c0.62,0.21,1.46,0.35,2.02,0.11c4.92-2.07,9.8-4.24,14.98-6.5c0.79-2.57,1.75-5.73,3.13-10.22
			C201.9,453.77,192.31,457.65,182.72,461.54z M137.7,372.13c1.37-13.12-6.24-23.61-10.69-35.11c-0.99,5.27-4.3,10.4-0.3,15.74
			c0.77,1.02,1.14,2.38,1.53,3.64C130.09,362.31,131.4,368.52,137.7,372.13z M360.6,230.29c8.06,3.04,15.52,5.85,23.23,8.76
			c0-3.25,0-5.97,0-8.67c-5.48-0.46-6.14-1.55-4.54-7.34C371.39,220.61,367.25,227.68,360.6,230.29z M385.88,261.52
			c0.4-9.17-3.98-16.05-12.51-19.35c-4.19-1.62-8.4-3.21-12.6-4.81c-0.19,0.31-0.38,0.63-0.57,0.94
			C368.8,246.08,377.4,253.85,385.88,261.52z M344.21,471.05c1.04-3.61,1.69-6.92,2.96-9.95c1.28-3.03,3.19-5.8,4.83-8.68
			c-0.2-0.29-0.39-0.58-0.59-0.88c-5.85,3.51-11.7,7.02-17.83,10.69c1.02,0.95,1.51,1.46,2.05,1.9
			C338.42,466.4,341.23,468.65,344.21,471.05z M123.4,406.26c-3.35,2.12-6.22,3.95-9.04,5.73c2.37,5.03,8.12,10.62,13.94,13.68
			C126.69,419.3,125.14,413.13,123.4,406.26z M395.59,195.73c-3.88-1.78-7.34-3.38-10.86-4.99c0.85,6.54,1.68,12.85,2.63,20.12
			C390.35,205.36,392.87,200.72,395.59,195.73z M358.5,180.54c-0.03-0.31-0.05-0.62-0.08-0.93c-6.28-1.77-12.55-3.54-18.83-5.31
			c-0.07,0.26-0.15,0.52-0.22,0.77c3.35,3.52,6.7,7.04,10.07,10.58C352.73,183.8,355.61,182.17,358.5,180.54z M138.08,278.03
			c-5.18,4.55-9.45,8.31-13.92,12.23c5.56,2.43,9.15,0.76,11.43-5.01c0.83,2.26,1.29,3.49,1.74,4.72c0.25-0.04,0.5-0.09,0.75-0.13
			C138.08,286.28,138.08,282.73,138.08,278.03z M414.48,359.22c-1.81-7.41-3.36-13.75-5.11-20.92c-1.2,3.53-2.22,6.27-3.02,9.08
			c-0.18,0.63,0.23,1.6,0.67,2.19C409.23,352.54,411.54,355.45,414.48,359.22z M306.45,136.66c2.22-1.53,4.36-3.02,7.27-5.03
			c-5.83-1.21-10.62-2.21-16.13-3.36C300.84,131.35,303.52,133.89,306.45,136.66z M367.24,162.95c-0.33,3.55-0.62,6.65-0.91,9.75
			c0.25,0.08,0.5,0.16,0.74,0.24c2.68-2.92,5.37-5.85,8.57-9.34C372.45,163.35,370.1,163.17,367.24,162.95z M431.2,276.11
			c0.23-0.27,0.46-0.54,0.69-0.81c-1.59-2.8-3.18-5.6-4.77-8.4c-0.34,0-0.68,0-1.03,0c-0.56,1.59-2.04,4.07-1.51,4.62
			C426.42,273.41,428.94,274.63,431.2,276.11z M410.54,178.08c-1.06,2.96-1.9,5.31-2.83,7.91c2.14,0.91,4.22,1.79,6.76,2.87
			C413.08,185.05,411.91,181.83,410.54,178.08z M415.74,197.28c0.11-0.13,0.22-0.27,0.32-0.4c-2.9-1.91-5.8-3.82-8.69-5.74
			c-1.99-1.32-2.99-0.64-3.38,1.6C407.97,194.28,411.85,195.78,415.74,197.28z M237.03,121.58c-3.36-2.33-6.85-3.84-11.03-1.7
			C229.85,120.48,233.44,121.03,237.03,121.58z M293.83,184.67c-0.88-2.63-0.69-6.49-5.62-5.22
			C290.27,181.36,292.05,183.02,293.83,184.67z"/>
		<path d="M181.18,175.18c-1.64,0.89-3.27,1.81-4.94,2.66c-6.25,3.17-12.43,6.54-18.86,9.31c-1.46,0.63-3.81-0.81-5.74-1.29
			c0.56-1.53,0.79-4.11,1.74-4.41c8.68-2.73,17.49-5.07,26.26-7.49c0.37-0.1,0.84,0.16,1.26,0.26
			C180.99,174.54,181.09,174.86,181.18,175.18z"/>
	</g>
	<g>
		<g>
			<path d="M184.14,320.29c4.72-7.87,12.85-11.8,24.38-11.8c11.54,0,19.66,3.93,24.38,11.8c4.72,7.87,7.08,18.78,7.08,32.73
				c0,14.12-2.36,25.15-7.08,33.1c-4.72,7.95-12.85,11.92-24.38,11.92c-11.54,0-19.66-3.97-24.38-11.92
				c-4.72-7.94-7.08-18.98-7.08-33.1C177.06,339.06,179.42,328.15,184.14,320.29z M225.16,336.44c-0.85-4.52-2.56-8.21-5.14-11.07
				c-2.58-2.86-6.41-4.3-11.5-4.3c-5.08,0-8.91,1.43-11.5,4.3c-2.58,2.86-4.3,6.56-5.14,11.07c-0.85,4.52-1.27,10.04-1.27,16.58
				c0,6.78,0.4,12.46,1.21,17.06c0.81,4.6,2.52,8.31,5.14,11.13c2.62,2.82,6.47,4.24,11.56,4.24c5.08,0,8.93-1.41,11.56-4.24
				c2.62-2.82,4.34-6.53,5.14-11.13c0.81-4.6,1.21-10.29,1.21-17.06C226.43,346.49,226.01,340.96,225.16,336.44z"/>
			<path d="M277.01,383.51c2.66,2.1,6.25,3.15,10.77,3.15c5.73,0,9.92-2.26,12.58-6.78c2.66-4.52,3.99-12.22,3.99-23.11
				c-1.94,2.74-4.66,4.86-8.17,6.35c-3.51,1.49-7.32,2.24-11.44,2.24c-5.24,0-10-1.07-14.28-3.21c-4.28-2.14-7.64-5.32-10.1-9.56
				c-2.46-4.24-3.69-9.38-3.69-15.43c0-8.87,2.6-15.95,7.81-21.24c5.2-5.28,12.36-7.93,21.48-7.93c10.97,0,18.78,3.65,23.41,10.95
				c4.64,7.3,6.96,18.49,6.96,33.58c0,10.41-0.87,18.92-2.6,25.53c-1.74,6.62-4.74,11.62-9.02,15c-4.28,3.39-10.21,5.08-17.79,5.08
				c-8.63,0-15.29-2.26-19.97-6.78c-4.68-4.52-7.3-10.2-7.87-17.06h12.71C272.61,378.35,274.35,381.42,277.01,383.51z
				 M298.61,349.21c2.78-3.03,4.17-7.04,4.17-12.04c0-5.57-1.47-9.9-4.42-13.01c-2.95-3.1-6.96-4.66-12.04-4.66
				s-9.1,1.59-12.04,4.78c-2.95,3.19-4.42,7.36-4.42,12.52c0,4.92,1.43,8.98,4.3,12.16c2.86,3.19,7.2,4.78,13.01,4.78
				C292.02,353.75,295.83,352.23,298.61,349.21z"/>
		</g>
		<g>
			<path d="M226.23,249.58c-1.87-3.6-4.47-6.33-7.8-8.16c-3.33-1.84-7.18-2.76-11.54-2.76c-4.78,0-9.05,1.08-12.79,3.22
				c-3.74,2.15-6.67,5.2-8.79,9.15c-2.12,3.95-3.17,8.53-3.17,13.73c0,5.2,1.06,9.79,3.17,13.78c2.11,3.99,5.04,7.06,8.79,9.2
				c3.74,2.15,8.01,3.22,12.79,3.22c6.45,0,11.68-1.8,15.7-5.41c4.02-3.6,6.48-8.49,7.38-14.66h-27.14v-9.46h39.83v9.26
				c-0.76,5.62-2.76,10.78-5.98,15.5c-3.22,4.72-7.42,8.48-12.58,11.28c-5.17,2.81-10.9,4.21-17.21,4.21c-6.79,0-13-1.58-18.62-4.73
				c-5.62-3.15-10.07-7.54-13.36-13.16c-3.29-5.62-4.94-11.96-4.94-19.03c0-7.07,1.65-13.42,4.94-19.03
				c3.29-5.62,7.76-10,13.42-13.16c5.65-3.15,11.84-4.73,18.56-4.73c7.7,0,14.54,1.89,20.54,5.67c6,3.78,10.35,9.14,13.05,16.07
				H226.23z"/>
			<path d="M313.7,301.06h-11.86l-35.67-53.98v53.98h-11.86v-72.38h11.86l35.67,53.87v-53.87h11.86V301.06z"/>
		</g>
	</g>
</g>
</svg>
